/* XPM */
static char *c0ab54908b26444ffd594b7e757acbc2nKSPFUcqkkLbYO1Z[] = {
/* columns rows colors chars-per-pixel */
"128 128 82 1 ",
"  c #332924",
". c #3A2D25",
"X c #372D28",
"o c #35302C",
"O c #3C332E",
"+ c #3E3631",
"@ c #3E3834",
"# c #42342C",
"$ c #48372F",
"% c #423630",
"& c #433A35",
"* c #4B3C35",
"= c #463E39",
"- c #493F39",
"; c #513F37",
": c #4C4037",
"> c #47403B",
", c #4C433E",
"< c #534036",
"1 c #5A4337",
"2 c #53453E",
"3 c #58473E",
"4 c #5B483F",
"5 c #61493E",
"6 c #4E4641",
"7 c #4F4844",
"8 c #524741",
"9 c #584740",
"0 c #544943",
"q c #5B4B44",
"w c #554E49",
"e c #5B4F48",
"r c #5D5047",
"t c #57514C",
"y c #5C514B",
"u c #575550",
"i c #5C5651",
"p c #5D5A55",
"a c #5F5D58",
"s c #614E45",
"d c #684F43",
"f c #604F48",
"g c #635047",
"h c #6B5246",
"j c #64524A",
"k c #6A554C",
"l c #6D584F",
"z c #705649",
"x c #725A4E",
"c c #635750",
"v c #645A54",
"b c #6C5B53",
"n c #625E59",
"m c #695F59",
"M c #715C53",
"N c #785F53",
"B c #705F58",
"V c #64625D",
"C c #6B625C",
"Z c #756057",
"A c #73645C",
"S c #79655C",
"D c #7B685F",
"F c #676560",
"G c #696661",
"H c #6C6A65",
"J c #6F6D68",
"K c #736760",
"L c #756962",
"P c #7A6B63",
"I c #716E69",
"U c #7D6F68",
"Y c #74716C",
"T c #78756F",
"R c #777570",
"E c #797671",
"W c #7B7873",
"Q c #7F7D78",
"! c #816D64",
"~ c #877368",
"^ c #807E79",
"/ c #84827D",
/* pixels */
"jssgks249333939j4;3233;99kl3kJ9qfqqfqq9q99399sq9qqqsq99qsqqsqKyKJVVHHssjs9fqgqqsIGJGFVVVGFnVnaanFHIHaVVVVVVVFGVVGJJFFFVFJJIVnVfq",
"jgsksgsssh4ss4jZlsssssssssMkfJs9f9fj9qqqqs9999q999jqqssqq9sqcGyffesq9sqqgsqssq9qq<eeq892qqcvGFVvcegqq92,222209,9qyiyq2822eUvvags",
"skgssssksssssshjs9s4sssssgsh2Cfsqssfq9f9s99q9939q9qs9qqssffqfHyqsf;qqqqgfffggssqsqqqqqsqgqqgJHGrkjZjPgrqqjqqgq3qqqqlqqqqgj*qcVgg",
"kkshsssssssglskgssss4s4ssgssfJqg2s9qqsqq99999332;9ssqqqs9s9jfnejsggfbfggffgqOAfsqqsqqqsqqqqkjFrqqjmlvkjqqqsqgegqqsvqqqqrLqqqqVef",
"ksjsssks;44ssjhkss5ssssssgssgJjq9qqqfqs9s999339999jqsBkjsqfkeCfg9jjjkjjMqsqZkggcvls4qqqsgggrqVqqqgqgljsgqrqqggqqsqqrqjqjgjgs9Vqk",
"ssssks;qss4gsghkgg$ssqssZkssgssq999sffBsqqq9292qbBqmsB9sqqgj9G9q9gsqqMcsgqsgkkggZgjjsqs2qrqAqVqqgq4v41qqAjqfq4qqgqggbejggqesyHvj",
"sssssssss4ssklkkzggs4ss4sggsgqqj9qq9fqfqs299993$bss9ss;2fq9feaf99qsqjssBgggs3sgbjkkggsssgggrjFqqg4qgg1qqgjqqqjqsrgsrfsqqqqqLjVsg",
"ssdssssssssshkhkzk!5sssssgsssqqq99q9qq9fjbq3q9q4bjBkk9q99jfqeaf9sqqcss9gfgsssgljjgkqssfqqgkgrGmgqqqgqqqqfgqrrqqqqqqgqsqqrqqqrVjg",
"kfsssssqssshhhghNgh9qggqbsfsgqq999qqqs99qqqqqqq99sssj9e9bksfwitcfsqsfsqscsgfqghkjjg2qsjsqqs2sVrgqqqqkqqqrkgrgjqqrgsqqqgrqgqqeFtB",
"vZ<PLLLsssdskkskskhqsBceffLm!KKLGGCAACCKcbyKAAcCBbAKLLyfceyyipiwyfbCCALKfgsgg;$kjsqsssqssgsqsVeqrqgq4qqrggrgqjjqqqqqqejjqqqq9Fvy",
"FYGFnVnnGHsss9qhsssJCmpiipnFFVJnVVnVVGnVCVppaanVFFKJGaaiaiaVJHFCCanCnGFFCFJcFKGKksqqqsqfgrgqq/sqqrqKCZAvjAvAmAqqqqqqfsqgrqqjqIWF",
"992,2929qqqq99qgksg9q0vvnppw===>>===G,===w@=@=@@=@7666paVameiyw>06,2,2,2e9qq9090q2qqqjqqrq0qyq00JGVGJiVVVVFVGGJIT90q0989Isfkbk*9",
"2ssqssqsqs44qs9sksl99s;vHp>6>,66,,,7C666>8>7766=>76@w,=iGi9e9999fq0qq9qfqqqce9yqqqqqqqrqqe9er9009w0>>*,>>,,,,9e0q00000w0Jsqjg9kj",
"fqlqsqq;sq99q9qslks9sqqfF766,76>>,,>>6>>>>ow,w>,>>7>6>6wnt999eqf999f9qqqqeqbe9992qqq2qqqe30qrw90q2200<29y9989wcje909909emqqsMkqs",
"qqsqkqq9;q9s999ssss9q9q0F>66666666>=66>,6>=6w>@=>>,>>07>m9qcff99fffqeyqbfqejqqq92qq09qqqJyqe<jw9wq02200099899v2rr9000990Vqsjksss",
"sqqsfssssq9ss4sdg4s99q9en6>>7>666>7w6>6>=66>667,6>>666v>F66qje96fwqqbqqqeq90B099q22099qqHq908 q0q9qwq9w90w:0,C928009090wFjqqsqqq",
"sqsq9sgqqqq99q9f444ss9ssn66>6777666,,>>6>66>8,666>>>,w,7Gjjf29qqqqj0fqjwf9q2j9;*99999qeqVq0,00qqq90q08efq88cjf8w9ee00q90Gjqfsqsq",
"qs9qqqqssqqqqqq9q9qqqq9qC6>6>>67666667666>,6,>=>>>666>67Hqq09s0qyqq09qqjqfffqqqj9222299eGy2990w0q0009q089808w8qfy998080wGqggqqgs",
"bqqqq4s2s9q9gsqg99qqq99qV>>>77ww776,>67666>67>8>66>66>p7aeqq09q9ffAq0jq99qsq99c*92988qqyFy9999 qw099q890q009898*rre09e-inefeqkqq",
"44sqgsscgDBAAALLSSq4q99en6676w=06,66666>7>>>ww68>>76,,t7pwyqqfqsqy9qyqqqe999cq9999229sqyGt00wq0088888w8wCfcqqq0c08099*ewpwgggqsq",
"gsqq;gLGJVCnCJJvCHCCG9K;J6-8,6WJJH6->&89w>,-2y0866,6u7wupuetmLCCeuiKvCACmKPvKKmKGKKvmcfmJvyCCCvveievcVKcvKKvmmGzCCvmvttuaavrbCms",
"GJqgqqq999,0222222qq9992q994fqqjssssqglgjq4skkgkcGHnnCGJJJVVCJGGaiiaVCG/JGYGGVVGnnnaVGnwTvIGGGVVVVanVVVVFGHIHJFVnVFFFFFVJHHVVVGG",
"9q$qqqqqqfj999qk99qq999999q2ggsk9shsggk5ss49skxhlgff32qeceqq9jbmnnciq,6fqesf029;;98;0qqbeqjjg20ypYpw8,-8--00888-,:---680ti06,-,0",
"9qg9qqs9qfffqfq4f99q99999;;99;999Cs4sgsssq4sqggkhsffqsfssskfgsq9VGn0qqq9q9kffjfq22*9999909qjjjjrqqeyeeqwy00h9w98-88088808880880q",
"8qqqqq9qqbqq3;9q99sq43q992j9q299qJqgss345s5s9kghkkhsgggsjskkgsssjGwqqqqqfqqgjqq9999q2qeq2qq2UBjjq0eeeeqw885 0q988m00009t08888980",
"0qq94fsqqqqq39c9999ss929299999990Vjjs4sss9s9slkhxgsssgfssgg4ssqsqGeqeqqqqeqqfqq99q99qqqqqqq2qqsg9e;ww2wC806880w8C88,0e8888688-w8",
"09qqsqqgfqqs34sq999q4ks99s9q39q;9CS3s5sggsgls5s3ZssBgsgsjsfs44ssfJfqqqqqqq0qfqqq9qe9qqqqqqq9q9qq92,2282808888-0880e8880q06008898",
"0cqq4qqqjqqqqsqsg9q;%s933s999999qn$ssssglkssssgs3kghs!jkj4g4gklgfGeqqqfqqffqqfqqqqqqqqqq2qqqeq9qqww888we088688-808808080e9008000",
"9qfffqqqqgfqqqqq34g92392;sc99q99eifBssgkx5ssqsssqs4lllxss3sjsxMffHfffqqfefqqqqqqqqq999qqqqqqqqqqq8808y8ee00808,8,80,w2,8e8029066",
"0q9qqsqqqqkjqqqq9qk99q99q;sfs99s7uwcssszgkss4qshgksf$jlgjhjhklkkyatf3eqf,gqqq9qqqqq9qqqqqgqqrqqqq82880,q908w088608880800608@0008",
"vCCCKbDALCAKDKCCcccbCBBebgcScys0tauws5sggxssfKKKDKjjgshlklhs3lfBwawfqqqqqffqqq00qqq9qq9qqsqqqqqq9888e828200-,862689608898888bvGm",
"VVVnVVnVnVnCJJnnniaVnntKGinJvnnnGJCnCJhkkgQCCFGKJ/KYYgs4sMssskmpnnujjmCKBKfmmBqBZCmCmm2vKCgCCCZCCVcCvCvGF82-28888968q,-s,JJVIJGH",
",--==,=-=-,-,0qecpiw79--&2-*&*-7yCi9q0fjjw9Cq6709006>666>6>7JJHJEYFVVVFVVFVVVFVHHnnnnnnnGVGHVGFCVvVVVGHHVVVJs4gghke2,80027878066",
"0080890,0000e088wVw9,209206926,29ff0mwfyj96qqf9c6977666=76>>67>tuV77>>>==>>==>668>99929fBlkf9q0fq89q9kcfjjssshfs4je02688628K2e0e",
"80q0,02,80,,,00,6H062900q0q669280qKfef9jccjqfy0900>676667,7,>7,>7>7777>7666,77uw7&ssssljMNbjkkjjskffhskljjhjssfjffi2,66080280000",
"C8,980,2,0980008,V0900,9y9fb8q628969qfccyfm9f09w0e66>666>,6,6>7777777777766677w777sssshsjkjksfkSshjffklsssbfssssbB%;e020,0w2220q",
"88,0880-,8y8-0,06V7y609.q8mqqq699690fcfyycf900,9206666O@7,,>>>7t7tw76>77666666@7w6ssssssklkBMjkjfklshfhfsMjfgssf9Mece000e80268e8",
"8800,8,00000c07bwCw80fcf0qyfq7wq90ffq,f*ffe60q7990J0>7767u777777u76>667>666>>676,>sssssjhfhbMlSjksBkfkkfkjshssggfh0,e226e0872060",
"00,008,,00fg0e00iC0692f62990697Aq0yyfcjffq09909700E6>666>>77,777w=67777667766,7>,,qsfjlfsjskjkkjfkhfhffhkkshjgjfjJ9,2et088888880",
"8000,98800,qeq00waq;292666f;9890qqyf2qy60080q0096uat>67677,>7>6>6666776o>>6a766,=6fsshjhjjqklqjfksfffffklbsgjjsfBGv0002078808888",
"000090070q008e0ywp7w060iq6060qqe0q,=fyq7090q0q80cwi7u67>y777667,7677666666677666>7jfffkfjjkj9glffffgggskk4fgjfjBwiwCe888,076280e",
"nm070807mCvLvibvuauwqmCcCccCmCCccte7tyvCCvCimmfCtupi7t6=,7706>,6766766667867666t66hqfhhffjjgjjljfhkkBqASSPPSAAjttpu7wymmCmCCynCv",
"nvvB6JHJGFnFnVGJYJGCFJJCnCCanYJGGnappnnFnanCFHGnGJYHFVVGJ6766,,,>6V7uupnvGFnuVpVnFbCPLKPAPj&kkjjkffJVVVVnnnnVGGVGGGVnVJWVGVVVaVn",
"pnnt,7ww>,,>>=,8w7wn>>6>=,>>=667pnnHCCeq99090qqqqvyc00fsfsqbjj3geInppuJHFGnnVVVFGGFFVGGVFFFKEcqqq0828>==>===,,wettw7,60,,-,>>,6w",
"wJJt7>i6,i0,66>>7w6n77,,,w>twi7we6nJCgjggggjgglgsskhgssffskjjsjjs9vGnVy006282-,8880,,2,&,,qwqq0jq808,,-8777i0q,68276,wqee7e,7wf0",
"eiJt=7e67767w67wv77i,>,,7,,,w7w7w,wGjsggfggkfggkfsfjhfsskflssfgjsfvHnq9w09880809980q880280ge000098088,8,8880ey8707,278we e8,,w8y",
"wwK7w606=00w,ww=77u6w,,>766,6tt7776Ffsgggfggjg*ghssflfflfkssfkkffscHeq009we9089w-wqcq89q0ff0000q08e,78,8,,yee,,807628ee7e,,,0ew0",
"e0Jw706666@=6>6,pw,6,7,,,,67,,,7wwtFffgsfgjgjgggsfsjfkjjs4ssskggskeIj9808qw9080099efwe0030000qq00eq8y7,,-0,8,88,788782w8,-77%82y",
"ewGfw777,66667667766,>6,,>,,,w67886FfsggggggggggggsggkSqgssggfgfsdeJvj8009009y900qqefew9t097000wf990,A66262606662,680f77,,,886,8",
",,K766>66667,666677,6>6>,,>66,67,66FcfgffjggjjjkjgffgMgsksjkkgggfscHe922099q00w97q,jqyj00qyq093q,660w66c,6666C668778,,88688,86t8",
"27F777,76,6666677666,66>6,76666666waygfgjggkgfkgggjSkMglggBgfgffsxcnt09-v90w2w9wq08fyfe000qe@ce096678w-06,6,6608,,;78,,068w0eeye",
"79G7,,76,6666667666667>666666>>66wwaybggggggjgkkjggjsglgggfgfgMgsbep0i09qj0w992w87902e0fe009qq-c099206,6268896,,778,680,8,,860w7",
"68J6776,6,,,667,,6nnaaCaiVvnCCntwwtaitcBLLLcAAccvefcBKKKKKAPPBPbbeiauwy8:0q2w9vywtv80,qymCmmCCnKCcCCCVVCcVvCCnnnK,6,,8,8&8828ew0",
"ffsseqfqq9qqqf3fqCVnVFGJHYGCVnnnaGHJCnFHGJCGVGCVapupCVFnnCHFFHnanFGHGFFGH20JVGaauipHyJCCVCGGGHnCGJGGCnVnCnVFFCnapnqqqf9q903qqghf",
"qqqqsqqfqqqqfqqqfCnie6686908>>-;67eew888696926wipnaiw2,,-,,,6,,;60eeww2qq2wq9q2pnCpy8678>,,6,,,,27666---=->>;w0tipe*ffqq9q9qqqqf",
"qsqs2sejqfqqqqffwJc,2ceqfqqq8896wqm088qqvj$jqq9,pHc,9qfqq938qbf0000qw9eqyqqrwqr:VYi278087868w880;w0-69666,67670-uVegqq9q39q,3qqq",
"j9q2qqsjf9f9qq4fyp7089qcffe09889,fbqq0y0qwqfeqq0,C-09ef0q0q9fff080eqqqygqrggqqjr0C7007c8070wc00660606662,2,;6=667nqq3q93q39qq9qs",
"9fsfqf9b9ff9qqqgjC7q990qfqq969963jq0yffyjqef99-c9J03e99090q0ej0q99209eqyqjrrw9yq0Ji066,767q0q60060009666,6666888,Fe89099qq9fqq,q",
"f99effff9qf9qsffwV80000qfq80889089qefqjcefq6000qq8039097908sffq0090qwqqryrq90qqqqq60980866qw8707600000620886,98wwF9909qq99q9q9qq",
"fq9fjcjbffqqqfgqqC0908qqq90098899fq0qyeefffq9y090cf2989999q090q8w99qq0jqgjw2qqwyqq9780608900009y69w066q6878,667q0Hj99qq90fqq9q9q",
"9f9fsjjjjfcfjj9qenq0900fefj7900880f,qqqfyy0902b8q;0cv99-809q90qf990q00qq9qqCrqqwqqw070900wy008007qy06706,0868,6ytHcfqqq9qqqqsqqq",
"f9fgfjjfffjfqfqbta008998cef08q9yqfq*q0vf8fq8q68988jff0990q0qq0q0909r9<q0qq0q0q0qqq0w007,6jy0077606qy969O0888,6890Hecqqqq*qq099qq",
"cmCAbPKAyLKCAvytpa60000892q0qfffm0c-ffff9j09qq7209qqf0900qqqqqqq229wqq9qy0w9qe9qf0009779qw900c068869i606e6,888,76nietmCCBBCjtwfj",
"pQnHGGJnVCnGCVVGGC809099,,2;0fqf9f0q0fc80f,890q298qej09090CiywwtvCmjCCVCKCKmCCjGCCmnCCC7CCvCCCCw86069c7fw9,807077GHFFaCnn^naptpp",
"f98s9999299;;299;;9gsqsq949qqFllsjjsgsgsgsgggkMkJHJJHssJGFVnppinVGHGHFVHJFVFFVGGVGFFFVVVFVFFJVVVGJvrrqc-2q9qc00898=,6,--:2winnpc",
"ssqsqsqqqs;ssqskbgs#9qsgsq4$qChjggsshjj!Mgqggg4zshssghsssffvnVnVH606>6>06,6>>=>6>>>>=>,=>>60tuw29q9w20qq8qeq9090899q89988q9,iGv9",
"gsskjjssqsqsqqqssss9qggqs44sfnsslssMjjsjksghxggzjksslsfgfffsnHn70w0t,7707v0770776670667y60606900w9w90998q8800q989889q0989802wV09",
"9sZ9sjskqss9qqqs3gqsqg4sssqqwCsgkkkNjs!jsssgggs4gshssskjshslyG7n0www706iu07666777060090060676Jqrr9q90090009q00090988009q0jq88V9q",
"sc9jssxssqsssqskgg3sgsg99qsq9Cfqssz!hsglgggghjgssssslsfNkfhbfIeww,0w0t00w7767w7w6660760766666Jqjjq09908q0r9990q0000wvq90b8988nqq",
"9ssqs99sqq9s99qksskZggqsss4q9nqfggj!lgjjZgskkBhsshh3skgkhqlkkHVbyw60ww70w7076006766=066666666Vwgreq00q08090eq0qyq99899eqqq0q2n99",
"sgqsqs99qqsssqssbskgkhgkqg4qfVjskxklMNhsZglslkssksssfghgskkMkHuwy0iw0ytt00706ww70667767006600Vyree0q909qqq<9e00qe90900mq0q980njq",
"qMsqqsssqksksqqqsqsq*ggsq4sgyncklszlMNgskskkSjhkhsssfjhsgffhwGt7q076,,60w00676666,6670667666tVyrqg9wq090ey000j892980902qy990wvwj",
"s9qqssBkljkgscgjq9sf9ckss4qjynwkZkk!kMgssjllhhssssfjsssgfhsbep7we866,,0>Vi07006668606007,66wtptvqgq,90qeqe90qeq99c889080ef2qwa8c",
"sBCvkBgbbPSbAAvvfsicjBAcACsyiaiwjBB!!AP!AlA~ABmjeeyvBAAAKmfvpauwwipVCVVVVmKpGvnutp66707CpnwwunpyivCmKKvcLymCmmriwwwpKcmK0-wwuae0",
"vGFFVnCJHHVnFnFniupannmFVVFCHJFCCCnnVHCnmVJCVaniipupaavaVVVHHHHFHFFFVtVVIYYJJFFaaupwRHFJGFFGJJYnYJJHVFVFFFVVVnJVnupaVnnGFnGFGHGG",
"7>7m6>>>>,>>>,7cnFnvw8---,60yyw89,-,260,,,6q960ivViiw &>=>>77uww6>>>>>>>006,,6wunnuwe0082080ett,eq9q2,,22,:-,88innaiw68i---7wu7w",
"88887866w860eww>uGc8qq099009wq0q9969909q0q9q992-iVi=,>6666>666686766t800wtw0206>pFt9wjq0909q0qe9qegj0qqe8980028,nHp,8606-6,-6&66",
"687w08688786,8,67Fyq9e099090qq99qO999q09q90q09900V6>6>66,6,68,p66670nw660t07&6667Ve8rq008ecyq2eqvqqee0fe02090998eG8,80e688,6667-",
"77000q87886,086,6J0eqq0900q9ys09q090q90990q99202;V667,,>6,6677w877w06666666t67606F0yqqqq00g090ejqmqreqqfq008e9090F66-88C78868-6-",
"70768e7068,88,686V9989,q9q09 f90qqff0q90920209900V66,667,6666ev8w>066660w60660776F0980eq09r0w0qerqqrr00eq89qq80ewn66,66wmp6w668v",
",868q0666780y8667nwqqyqOq9q992q9009fqf0q09fq00298a76666=,-676-ww0,>6707w70766666uV,q8e89q000qqOqw9q,cwq920q22ryj9n666>00,w6-9976",
"8,,6660ye8=we8687VwqyqCCqqke0099990q09090qq99q0q8F6w=668766-F,ww006667767,66p6,7wVwc99qy0090eeq020:r2qw0r0203w20eF8660,,6 0,606v",
"6688,88,6,6e008ywny9j2fyff9qqq9q900999099q90999;en77w6667066-6w60u06660w77678>66wau9q9wqgq9qb9eqr020qq90q2q00q02inw6,e=,>,266,,,",
"w6688w688w,0e00vwpyc0q9jjf999009j90q0qqq9003289e0a7w=768866686677666w0,nw076066wwuwvy009008qe090w9q02qq90020q02rea77,t,,,,,6,,,>",
",8>nCaCiCnCnGvyynCniyCAmcmCmACnCvwwijvceAiCCnmwwpIuwwevinvVnmnFmnmVCnnCnnVCCCnyauatwtmCKKKCGHm8cr0wtVAVCVCCCCvwwuau7w0,,6,6,,,>6",
",wGKJECnFnKCGJJHJRRYHnCJJJCVnnCJCnaapnnGnFCCCaaCGJHnananVFFnFFGGVVVVGVFGGGVFHVHGJHHFVGYFnaFGYGGnVpupaVVVGVCVVVVaGIFVHFVGJ,,,,6,>",
",=JBcgqqe999q90efCbkf99gf99409qfKCGCnf9qj0q3q90ejij3<9990e999qqjjq,0,,,,6,>,6,6wtut0-:,>,--8K80wpnVaip,,,6,>>>>,tw766=6,06,,,,,0",
",,J9gkkZkgggs4gqjllksfshssskgssMfCYCqsbgggss9bkgBkkssesskklkkjkllgq,q088jw0008=008698w08888,-820-nHu,7,066,0607,07666,,>6,,,,,00",
",-sssslsgfggssgxks5hsjsskssxggsh9cCfkgsgsgggsslxMxhlsshAMlllfjkkjq&:yyeryew2e00980000ye88w0608e,8wFw0600,,7w22>,i0,,,,,,,662,7,2",
">,sssh4!bgsqsss;sssgsssqs5skj5sggqVfsggggjjggkgZMxMxdjkklxkssksslk9vyy6,y02yw0yw00000088098,688886F6768677v,7622,,w,>,,2,,6,,,66",
",,sssssslkgkkgggssllsssgssjkg5shfqCyggjgggggkkMllM!sqsMkSkMsjkkkjjwqq000v0:0909w060000008688-888,8F78,662,20727pt,,,,,,7,20,62>2",
"6,ssshssqlkxg4sgsjssjSs5hkjhkj5klsVfggjggggggk;jssssssskxxqksjkfkkgw:,w00w9>0ww0e028w00:008088,8:wF06660777wt277t0,w,,,w>,,,,,7,",
"06sss4sssklgqgssshjsjshjghkkMgsgggCqgsgggfgggg5gksqsjkssqsskfffs2Z2t20200w0w96yre0000ww0-0888886,7F00007ww,rt0t22,,,,2w20,2,6,70",
"07gsssshssssssggjjsssssg!khkZkgkksCfsgsfsgkgglsglssdsjkssksskfkkblq0020w220w00y20080900w8080868X8tV0070=y0,,wr,2,,0,,>>,66>:w6,@",
"iVPPKbKASSKKLAZ!CKAKBcybcBlSMlgs;gaffgsgggggssgjjAPAPDDUDLLsshflhlW00Vq202w990vyww89090608y28688,tV00006270,,00i,,7Vptw7wtivVVvv",
"GnCVnnFFFFVFK/QmFCFnFvnnFCYRYLJkssHjgggsgsklsgJKVGVVGIJHKYGFHRlkkMW90t000wqw0wyCCcKVGCKmmGCGGCvwivIw6,w6t,,,00irIVVaVauauaVVVVVV",
",66-2--,,-,28yw998,27vFJJmlkllMkjsjssjsjfskssshsfsj9jsskkf9fhjhblb5jjkr4k5blTGYYEIJVVVVVVVVVVVVVGI,qq900968,899r0,0=0upFpv0,:---",
"990992098q-929fe0e909eiJKllllMMlsssssjjhsjfhfsfkgjk4lMllhkshkbffjjkjjj4kjjjrkjkllkg4q3jr,>>,>,>,,e0sjs082w068w8j066,6,iHi882889e",
"69q0q896809889,emw0098cJkkMlkkkxhsgshsjssslBfkhsshsklMkkksfffbkhhjjjjj5kjk55jjrglZgrrgkl02660w2,80,000080q,68wq8,6:8687Vw0988809",
"96q7692990y82-9920099+q0jjhllkhsssssfssjsshkfhsssjjklkNlhklhhlPhbjkjhlzAkjjk5jjjggZjggkk00200200q000ye800:0,62w82886086V98889906",
"0796998692,8888qqq9888q9kkxlggggggsgffhfh4shfhhfsfsNkllxdgsklkfkjj5jhbZkj5jkjj5jl4gZlghj6w0otw206800w68000002,086866886V899000y9",
"0qq06992282998qqq9q08989ghlggkkggggjgkffsslhsshhggsklglklkskkSkjkkj5h5k5jkjjj5kjlgDgllll002:2207086098000006w06068e8888V08808809",
"2909097680880080wbw99808gsggskkkggkhggghssgkshkjsljgggggHfsgkgghkjr5rhbMkjkjjkrjlDxlgxZly0w0,202608908860090000t868688yVw880q-ew",
"009006998928989@22mq7989ggjgggghsfkNlgfhsshshhjsgsjgsssBFPgkg.gkjkjlkj55j5jj5kjjlZl4lOlj20c20,w0000,80089ww,w209,2,e00wae0928699",
"009708998009728990080908ggjAk;gkfskhfkffksskhzxhggkgjsleptbM5ssfkjjjr5krlkjjjjjllxkklMjgt4i0,05280889w0968,88,088689qeipwn09890w",
"qwwcnnnCCCCcFGnmnCymCmCCK!LLBLAbyyjbLUAAAPLLP!BBlKKDByeiptbbAABcliclALLDAPPLPPLlllklkSjl0003t0VrwtwiyVVmCGGmCVVCCCViwupnuwcvmnvq",
"apiaVVVnVVCVFVFanVnnnGGFCFnnVVnvpupVVVVnVHGFKKmmnnnnVnVCJHJJnVnnappVVIVVVVVVVVVGCIjlMhjgJ22WCVVaapnGFFVVCVnVVVVanVVGJFGJGHHVnvna",
"GGnaw>>=>>>>>>>>======>>6>676>wppFvmyss99qs9sdss039q;qqyccbc9ecmVVVnir5r4w344r4cjkkjkjjjjkjkklVVmGVny8,,>,,:2>**>82:,0wtew0,,,wp",
"CWH6766,,676,,>>+,>,>66y07tw7w6=pHvsBfshsslzhzNzjfgssgfhkjkssjjsVHCrhkj5jjkjjjjZkjjjkjjjjrMMklkrnHn20q092:9w2890qqe2890089888002",
"wYn6ww,=,6>,w,66,,76=wow8,,0w7>67VigssffssMzhzxhjfkshgggfkMkshjjrHccjjjjjjjkjkrjkkjkjjjkjkklZl4krVw0w9qy9990882wcqqw98820q8098q0",
"7Yw66-,,6w7,6,66>&7777=0777,66667VybhjhfbsSdhhzzhfkgfggjjjlsjjjj5G5llrjkkjjjljjkjjkjjkkjjjjlljljgV00209ce000909yqygy9,8eq00q8089",
"8n6,666,76,7,6>7y78,6,,76,77676>8FfhsfkffkfhhhzxgzkfgsqgfkfhljjkjVjjcljkrljjkjjjjjkjckjjjlkZkjkkjFwe9009r9w9900qrrrqq20vjqcqq000",
"7V>067=7666666>6>6>iwww,06Oww66w6nrskjsjsbkdhhzNj5glgjrjjk5jgjgrjIblkkjckjjAljjjkjlljgckkgllcllkfIme0qeq088q9809ejjw00qjj8qqeq08",
"0F766666wv>6>667,wv7w,=8>666,i668FjcjksfjskMhhkhjggjgggkjjkgj4gjjjlbbjklkjjj5lljMMDbkkjjgjjlllllcIfqw0qw0q8q00e8ejje090j9qqceCe0",
"eVw66607066776>>>666>7=66666>>66wVjjfkkskjshzzks5jjjljgg#h4jbjljjTkljbZZMjkjjjblSMbkjjljgkclSqZjmIce9w99c00008q8qqevq80e90efqeqq",
"wnu67u670>666>6>w>6>8>>66>6>66p,wntAk$sxklkxxzhsrkgjkgrjkjllgjggjkbkllhbkrjkrl5MkgjjkllkjgkklkjbeHicf98980909888emq0209qyqee8rjy",
"iFi>6t6>67>66,,>>6>8>6667,,66=>yuaitvZbAKPBBP!!blyyjvAADAAVDPACCrvpCSPIUPLPHPPMUvcyvcCZKLPUZLAvyinnitvCGCKCGVCmvytwwevn00mvFview",
"JGF76 i686m7,,,6668,,6866668w,JJHRGFVVVVGIHHJKFVaapanVVVHIHCGVEHVVGGGGGJVVpFVVHHaaianFGGGVHVGGVGGHKFVVGVVVVVFVVnGnipaVnaFnFFFGVV",
"7>776666>6>66w0666C77678>68,,888www7,===&---&888aaVaVt,,,7>,,,t7227,>,,,,>=>,,,umnVnpw7,,,,,>,07eww7-==6=,-,,-67nnFpuw,&==@=&==6",
"7>6ww760>>6>>6w,>>7,e7e76,,66w>w680e668,-6,78,w->pGa,t77w,,7,700w,772,7,,w,7,7,26pGa6008Vw0666767678t8866-88q786-nFp676667666677",
"7076wC6>6,,66>>>>=8-w6ww,86867786660,,,,,,,,6,,,,wFt700777,,77777,7,77w7ttw2t77,7wGu0007w0t0676666668076866t88687wH77676=6666666",
"w7w0>6ww6-,7666666,,,00w678ww8878,68806,686>>,0,,2G7w66t7,,7,,,7>772,,@,tww7,,27@6G77ww886e7w6876,6,66086868866767G6668660=66667",
"7w607>ee@6=6,,7,67,,,,,,>00e0886066w866,6,,6,,060,V670,007,7,7,,,7777,7737,,,,7,67F7687686-88608666,6666,686w6&867Vw,,766666=677",
"070tew>=@>76>666,6-6,88>,8O8e766,6,8666,w,60:0,666G6600tt7777,7,7,,777,,72u,7,7776G787w80-8666666-6,6668,66668676=F7666=6766667w",
"wt00w0=>>>6>6i67w7,,6>,6>68,7,866666686,,,%6y6C>,6F76670t,7,7,,7,7,7,7,w,w77,77766Fw086pww80066w6686,007686-606866Fw776666=66677",
"67t00w0>6>>66@pw68>,668,87c,707666066,6,866,2,,w66V6>667,,,,>7u,,,,77,7,,,,7,7,76wau78606w0,0866660w,8O6866688687waw766667-76666",
"66twwtC>nGmnmim@iVCCmnnnm6w68000680,6,660m08,,,>,,J,666,,@,7,7>=7>,,77,,,,777,,,67pww60,666Cw888068668w6888w7866uwu7w6766687676,",
",w6YJKGVnnnnGGGVFnnVnFFJGGGY6780e8866666YR00,66,6,H666,677,@,,7,=777,777,,,,777,6uauwwnCVmvtwittiJmGGCvVnnvvGFuwupauwwpvFnvnF=66"
};
