/* XPM */
static char *result[] = {
/* columns rows colors chars-per-pixel */
"128 128 26 1 ",
"  c #777777",
". c #6F6F6F",
"X c gray39",
"o c gray50",
"O c #838383",
"+ c gray31",
"@ c gray42",
"# c gray34",
"$ c #5B5B5B",
"% c gray28",
"& c #474F33",
"* c #5B6347",
"= c gray23",
"- c #3F472B",
"; c #53573B",
": c #434343",
"> c #8B8B8B",
", c #373F27",
"< c #574333",
"1 c #373737",
"2 c #6F7357",
"3 c #6F5743",
"4 c #67533F",
"5 c #533F2F",
"6 c #5B472B",
"7 c #676B4F",
/* pixels */
". ..o   o XX..X.. . X... X ..    ...   o XX..X.. . X... X ..   .. ..o   o XX..X.. ..$--=;-&=<--=$  .   o XX..X.. . X... X ..   .",
". ..    o XX.  .. . .....X ..    ...   o XX.  .. . .....X ..   .. ..    o XX.  .. .@*=;&=,&&&+%;*  .   o XX.  .. . .....X ..   .",
". .. .o  .XX. ..  . . ...X .. .  ....o  .XX. ..  . . ...X .. . .. .. .o  .XX. ..  ..$%6-,=&+4&:+#. ..o  .XX. ..  . . ...X .. . .",
"   . .  o..XX...  ... .... .. .   ...  o..XX...  ... .... .. . .   . .  o..XX...  ..X-%--,+X:$:%X. ..  o..XX...  ... .... .. . .",
"  .. .O O...X.X.....X  .X  ....  ....O O...X.X.....X  .X  ....    .. .O O...X.X....@*&&,==:+*&:#X. ..O O...X.X.....X  .X  ....  ",
"o o. .   ...XXX.....X . X  X ... o...   ...XXX.....X . X  X ... o o. .   ...XXX....@*&*-<=+;$&#%X....   ...XXX.....X . X  X ... ",
"     .    .XX.X..  .X.. X  X .X.   ..    .XX.X..  .X.. X  X .X       .    .XX.X..  .X;--=,$3*;##XX...    .XX.X..  .X.. X  X .X  ",
"   . . oo..#X.X.X. .X...X  .o.X.  ... oo..#X.X.X. .X...X. .o.X     . . oo..#X.X.X. @@-&&11$**&#@@X... oo..#X.X.X. .X...X. .o.X  ",
"   .   oo..XX....X.XX...X . o ..  ..  oo..XX....X.XX...X.. o . .   .   oo..XX....X..X;;---%;$:+ X...  oo..XX....X.XX...X.. o . .",
".o.  . o ........XXX..... . o...o. ...o ........XXX....... o.. ..o.  . o ........XX.X;+:=-&#&:+ X.....o ........XXX....... o.. .",
"   o . O.XXXX    ..  .  .  .  .Oooo....    .O..O   ....... . # .   o . O.XXXX    ..o@7+:=-&++*#@X.O....    .O..O   ....... . # .",
"o .o o . XXX.    .. o.  .oO.  .X oo....  .. X . o  ....... X.X  o .o o . XXX.    ..O@+;::-#+;%#%@.X....  .. X . o  ....... X.X  ",
" ..   o. X ...    .. ... OX.  .X   . ..   ..X  O    o ..X  X..   ..   o. X ...    .O@$;::1*$%5+$X.X. ..   ..X  O    o ..X  X..  ",
"o..  oo. X...X.   .. ... OX... .o  .o.    ..X . o   o . X  X. o.o..  oo. X...X.   .o2X+<:=%$:3+XX ..o.    ..X . o   o . X  X. o.",
"  .O. o.  ....... . #..  Oo .. .   . .      X o ... o ..Xo .. o   .O. o.  ....... ..@*;&=+;#%&#$X .. .      X o ... o ..Xo .. o ",
".. .  o.  ....... X.  .o Oo ..   ..X     . oX.o ... oO ..o .. o .. .  o.  ....... X.@*;--+;#+$+#X  X     . oX.o ... oO ..o .. o ",
" ...  o.   . ...  X.  . .O   . . ..X     .  X.   .. ooo .   . o  ...  o.   . ...  X 2$+==+#$#%##@ .X     .  X.   .. ooo .   . o ",
" ...  o.   . . .  X.  .o.O    ..  o. ...    Xo..O   o...X  o. o  ...  o.   . . .  X @*%$=%+$$X+XX... ...    Xo..O   o...X  o. o ",
"     ooX..   ...  ..  X.XO  .... .o. ...  ..X. . O  o...X   . o      ooX..   ...  . @X#X:%+# X$#X... ...  ..X. . O  o...X   . o ",
". o .ooX..  Oo. . .   X .O..  . .. .  ..   .X.  O .O.. .X.    o . o .ooX..  Oo. . ..2X$X:%+#X%+$X. .  ..   .X.  O .O.. .X.    o ",
".  .. o...  oO    .   X XO... .  X . o.    .X. . o  o. ...    o .  .. o...  oO    . @X X#%+$X$#%X. . o.    .X. . o  o. ...    o ",
"  o.. ooX    O o o.   ..XO .  ..   .  .    .X  o ..Oo  .X   o o   o.. ooX    O o o. XXX$+%#$$X=X#...  .    .X  o ..Oo  .X   o o ",
"  ... o X   Oo oOo.   ..XO..  .   .X.     ... .o ...o O X. .   .  ... o X   Oo oOo.O*XX$+%##XX:%X. X.     ... .o ...o O X. .   .",
"    . o .   oo  O .   ..XO.. ..   .X.     .oX..o  ..o oo..     .    . o .   oo  O .O@*X$+%+$$#:$X. X.     .oX..o  ..o oo..     .",
".  . .o .    o   ...oo. . X..o. O. .. o    o.X.o o. o  . X      .  . .o .    o   .. @X@$#:+$X## X. .. o    o.X.o o. o  . X      ",
"...  .o .#...o  .   oo.XXo ..o.. ..X..  ..  XX.o  . o O. o O. o ...  .o .#...o  .  .@X@$#:+X$@:@X..X..  ..  XX.o  . o O. o O. o ",
"...  .o . X..o  .  o  .X.o... ..O .X.   .. .X..o.   o o.    . o ...  .o . X..o  .  .@$XX#%+$%#+%X..X.   .. .X..o.   o o.    . o ",
". ....  ....  .  . o.....o...  .O.X$.  .. ..XX o.   o  .   .X.oo. ....  ....  .  .  @$XX#++$#%+@X .$.  .. ..XX o.   o  .   .X.oo",
" ...    X. . ...   o   ..O...o .o..X . ....#X.oo   .o. ..  o..oX ...    X. . ...    @$XX#++$##+@@ .X . ....#X.oo   .o. ..  o..oX",
" ..X   oX. X. . o  o   ..O...o   ..X .o... XX. o    o. X . o .o. ..X   oX. X. . o  o@XXX#++$@X#X@  X .o... XX. o    o. X . o .o.",
"  .  .  X. . O.  .  ..  .O  .o   . X.. ..X.XX. o    o .XX  o .o.  .  .  X. . O.  .  @$XX#++$@X#@X  X.. ..X.XX. o    o .XX  o .o.",
"  ....  .. X.o .o.      .O  .o   ..$.. ..X.X.. o... o..X.  o .o.  ....  .. X.o .o. o@*X@#++X@XXXX  $.. ..X.X.. o... o..X.  o .o.",
"  . ..  .#...o....      .O  .o  o..$.  .XX.X.. o...oo ..X.    o.  . ..  .#...o.... .@@@@#++X@@$@$  $.  .XX.X.. o...oo ..X.    o.",
"  .. . ..X . o..   ...  .O.  o... .......... .  ... o ....   oo   .. . ..X . o..    ..@.#++X..Xo ........... .  ... o ....   oo ",
". .. o . X . o.. . ...  .O.  o  ...Xo.. .... ..O .. o .XX.    o . .. o . X . o.. .  . ..#++X ..    Xo.. .... ..O .. o .XX.    o ",
". ...o  .XO. o ...  ..  .O   o  ...Xo. ....X ..o . o  ..X  .. o . ...o  .XO. o ... ..  .#++X  .    Xo. ....X ..o . o  ..X  .. o ",
"  ...o ...O. o ... .    Xo  oo   . Xo... ..X ..o . o ...X. .. o   ...o ...O. o ... .. . #++$. @o.o.Xo... ..X ..o . o ...X. .. o ",
"  .. o ... . o ... ...  Xo   o......o... ..X . o   o... X.  . O   .. o ... . o ... .. ..X++$. XO.o..o... ..X . o   o... X.  . O ",
" ....  . . ..oo o o... .XO...o  ...X  .   .X . O o. ....X. ...   ....  . . ..oo o oo o..X++$ .X@.ooX  .   .X . O o. ....X. ...  ",
" ..... .XX...o .   ... . O...o. .  X...X...X ..o  . .X..X. ..    ..... .XX...o .      ..X++@ @X@oooX...X...X ..o  . .X..X. ..   ",
"  .... .X#...o .  o...   O..Xo.  . X...XX..X ..o o. .X .X  X.  .  .... .X#...o .  o  o..X++@ @X@.ooX...XX..X ..o o. .X .X  X.  .",
"  ....  .X.  o  . o   o  O..Xo. o. X.. ... o.. o o  .  .X .X.o .  ....  .X.  o  . o. o  X#+@ @@@o@OX.. ... o.. o o  .  .X .X.o .",
"  ....  ... #o.   o      OX..o. O.oX.... . #.X o o  .o  X .O.oO   ....  ... #o.   o  o  X++@ X@@o@OX.... . #.X o o  .o  X .O.oO ",
". ....  ..X.Xo o .    o  OX..o  O. X.... XXX. oo.o  .   X. . o o. ....  ..X.Xo o .  .   X#+@ @@@.ooX.... XXX. oo.o  .   X. . o o",
".  . .   .X..o  ...   o  OXX.o   . ....  XX..  o.  o.o  X.X. OO .  . .   .X..o  ......  X#+@ X@@..O....  XX..  o.  o.o  X.X. OO ",
"   . .o  .X.. .o...   o  O.X.o     .. .  XX. .oo.  o..  X.X. o o   . .o  .X.. .o......  X++@ @@.O.o.. .  XX. .oo.  o..  X.X. o o",
"..   .   X......... ..   O.X o     .... ..X....o.  o.   X .  O ...   .   X............ .X#+@ @@@o.O.... ..X....o.  o.   X .  O .",
"..  O   ... ...  ......  O.. o.    . . . ..... o...o o  X . .O ...  O   ... ...  .. ....X++@ .@..@@. . . ..... o...o o  X . .O .",
" .  ooo  X. ... .  .    oO.. o     .o    ..... o ..o O  X  ..O   .  ooo  X. ... .  .  . X#+.o.@..@@.o    ..... o ..o O  X  ..O  ",
"     oo  X. .X ..  Xoo  oO.. o      o o O... ..o  .ooo  X  ..O o     oo  X. .X ..  .  .o@#+.o@@.... o o O... ..o  .ooo  X  ..O o",
"    O o OX.  X .. .X     O.. o   X .  oOO..  ..o ..  O..X X..O      O o OX.  X .. .. .. .#+@ @@...o.  oOO..  ..o ..  O..X X..O  ",
"    o o OXX oX .. .Xo   .o.  o.  . .   O ..  ... ..  o..X . .o.     o o OXX oX .. .. ..o.#+X.@@.@@o.   O ..  ... ..  o..X . .o. ",
" o    o  ##.o.   ..Xo .  O o o.  .      .XX oo  .X.  o. $ .. o.  o    o  ##.o.   .. ...o.++@ .o@@@o     .XX oo  .X.  o. $ .. o. ",
" o  O o  #X.oX   . X  ..   o.o   . . .  ..X  o  .X.. o. $ X. O.  o  O o  #X.oX   .  . . .++@ .o@@.o. .  ..X  o  .X.. o. $ X. O. ",
" o..  o  XX. X   . X O  ..  .o   ...    ..X. o  .O..Oo  X X. o.. o..  o  XX. X   .  . . @#+.....@.O.    ..X. o  .O..Oo  X X. o..",
" o..  o  #.. XO..  X  o    . o o ...    XoX.  .. . . o  XoX. o.  o..  o  #.. XO..  .    X#+  ..@@@o.    XoX.  .. . . o  XoX. o. ",
".o. o o  #o. XO ...XoO     .oo     . .  X X.   ...  Oo  X . . . .o. o o  #o. XO ...... o@#+  ..o@.o. .  X X.   ...  Oo  X . . . ",
".o. O o  X.. XO .. X  o .. .oo   o . .  . X..  ... .    X . . ...o. O o  X.. XO .. ..    #+...@.o.o. .  . X..  ... .    X . . ..",
" o    oo.X. oX ... X. . .. . oo o  . .    X..  ... .o ..X . .O . o    oo.X. oX ... ..  . ++...@@oo@. .    X..  ... .o ..X . .O .",
" o  ..o  X.ooX ....X. X... . oo O  . o ....  O.O..O  o..$.X..O . o  ..o  X.ooX ....... . ++...@..o@. o ....  O.O..O  o..$.X..O .",
" o   .o  X. oX . ..X  X.   ..o    o.Oo .... .o . . . o..$.. .O   o   .o  X. oX . .. ..   ++  .@..@o.Oo .... .o . . . o..$.. .O  ",
" o   .o. X.ooX . ..X  X... ..o  O.OXO   ...  o..  O. o .X.  .O o o   .o. X.ooX . .. ..   +#...@....XO   ...  o..  O. o .X.  .O o",
" o    o  ... Xo  ..X ..... X.o  O.o.O  o. .  o.. . .   .X.   O   o    o  ... Xo  .. ..  .+#...@.@...O  o. .  o.. . .   .X.   O  ",
" o  . o .... Xo O  .. .O.. . o..  o.    . .  O.  o X.   X.  oo.  o  . o .... Xo O  O  o. +X.....@@..    . .  O.  o X.   X.  oo. ",
".o  . o..X.  Xo oo .  .O.. ..o..  o. ..   . .O. .o X.   X    O. .o  . o..X.  Xo oo oo o  +X....@@@.. ..   . .O. .o X.   X    O. ",
".o    o..X.o .o Oo .oO.O  oX.o .   . ..   . . ...o ..   Xo..  . .o    o..X.o .o Oo >o O O+X  o@@@.@. ..   . . ...o ..   Xo..  . ",
". ..   ..X.  .o O  .OO.O   X.o..   .o . o .   ...o ..o  .o..  ... ..   ..X.  .o O  O  oOO+X  .@.@@..o . o .   ...o ..o  .o..  ..",
"  ..    .XX o.o o  XO .O  oX.o.. O .O...  X.  X..o ..o  X  .  .   ..    .XX o.o o  o   O +X  o@@@@@.O...  X.  X..o ..o  X  .  . ",
" .. .  . X. o.o O .Xo..o  o. OX.o  .O..   X.OO. .o.. o  X ... .  .. .  . X. o.o O .> .  .+#  o@@o@@.O..   X.OO. .o.. o  X ... . ",
".    ... X Xo.o oO X o.o  oX.o.  o .oX.  .X oO.. o.. o    ..   ..    ... X Xo.o oO  O .  +#  oX@o@..oX.  .X oO.. o.. o    ..   .",
" .  . ..   XO oOo .X.o.o.. X.o...  .o..  .X OO..ooX$ O oX X.  .. .  . ..   XO oOo .  .X. +#...@o.@@.o..  .X OO..ooX$ O oX X.  ..",
" .  oO..o .XO.ooo oX.O.O...X.o  .  .O..o .X OOX    $OO  X ..     .  oO..o .XO.ooo o >o .O+X..@.o....O..o .X OOX    $OO  X ..    ",
". ..o   o XXoX.o o.XX .o X X.o   ...   o X$.o X. o $.O. $ ..   .. ..o   o XXoX.o o.. ..o +Xo XXoX.o.   o X$.o X. o $.O. $ ..   .",
". ..    o XXo. o o.X...o.X X.o   ...   o XX.OOX. o X.O..$ ..   .. ..    o XXo. o o.. ..  +Xo XXo. o.   o XX.OOX. o X.O..$ ..   .",
". .. .o  .XXo .oo .X. .o.X X.o.  ....o  .XX.OoX  o . O..X ..   .. .. .o  .XXo .oo .. .. .+X .XXo .o..o  .XX.OoX  o . O..X ..   .",
"   . .  o..X ..oo .X. .o.@ X.o.   ...  o..XXooX  o.. O... ..   .   . .  o..X ..oo .   . .+Xo..X ..o..  o..XXooX  o.. O... ..   .",
"  .. .O O... .Xo ..XX  oX@ X.o.  ....O O..XXo X..o.X O.X  ...     .. .O O... .Xo ..> .. .+XO... .Xo..O O..XXo X..o.X O.X  ...   ",
"o o. .   ... XXo ..XX .OX@ X o.. o...   ..XX  X..o.X   X  X .O. o o. .   ... XXo ..o o. .+X ... XXo..   ..XX  X..o.X   X  X .O. ",
"     .    .X .Xo   XX..OX@ X oX.   ..    .XXo X. O.X.  X  X .O       .    .X .Xo        .+X  .X .Xo..    .XXo X. O.X.  X  X .O  ",
"   . . oo..# .Xo.. XX..oX@ XooX.  ... oo..#Xo XX.O.X. .X. .o.O     . . oo..# .Xo..    . .+.o..# .Xo.. oo..#Xo XX.O.X. .X. .o.O  ",
"   .   oo..X ..o X.$X..oXX.Xoo..  ..  oo..XXooX.XoXX. .X.. o O .   .   oo..X ..o X.   .  +.o..X ..o.  oo..XXooX.XoXX. .X.. o O .",
".o.  . o ...O..o XX$...o.X. oo..o. ...o ....ooX.X X.. .... o.O ..o.  . o ...O..o XX.o.  .+. ...O..o...o ....ooX.X X.. .... o.O .",
"   o . O.XXX.   O..X .  .X . o.Oooo....    . oXO OX.. .... . O .   o . O.XXX.   O..   o .+..XXX.  >....    . oXO OX.. .... . O .",
"o .o o . XXX     ..Xo.  .XO. o.X oo....  ..  OX oOX.. .... X.   o .o o . XXX     ..o .o o+# XXX   >....  ..  OX oOX.. .... X.   ",
" ..   o. X . . O  .X ... XX. o.X     ..   .. OXO OX oo..X  X.o   ..   o. X . . O  . ..   +# X . . O  ..   .. OXO OX oo..X  X.o  ",
"o..  oo. X.. X.OO .X ... XX..o .o   o.    .. OX oOX oo. X  X.Oo.o..  oo. X.. X.OO .o..  o+# X.. X.O o.    .. OX oOX oo. X  X.Oo.",
"  .O. o.  .. ..o  .X#..  Xo .o .     .      ooX .oX o ..Xo ..Oo   .O. o.  .. ..o  .  .O. +#  .. ..o  .      ooX .oX o ..Xo ..Oo ",
".. .  o.  .. ..o  XX  .o Xo .o   ...     . oo X ..X oO ..o ..Oo .. .  o.  .. ..o  X.. .  +#  .. ..o.     . oo X ..X oO ..o ..Oo ",
" ...  o.     ..oo XX  . .@   o . ...     .  . X  .X ooo .   .Oo  ...  o.     ..oo X ...  +#     ..o.     .  . X  .X ooo .   .Oo ",
" ...  o.     . .o XX  .o.@   o..  oo ...    .OX.O X o...X  o.Oo  ...  o.     . .o X ...  +#     . .o ...    .OX.O X o...X  o.Oo ",
"     ooX.. o ...o .X  X.X@  .o.. .oo ...  ... X. OX o...X   .Oo      ooX.. o ...o .     o++.. o ...o ...  ... X. OX o...X   .Oo ",
". o .ooX.. oOo.   .X  X .@.. o. ..    ..   .. X O X... .X.   Oo . o .ooX.. oOo.   .. o .o++.. oOo.    ..   .. X O X... .X.   Oo ",
".  .. o... ooO  o .X  X X ...o.  X   o.    .. X. oX o. ...   Oo .  .. o... ooO  o ..  .. +#.. ooO    o.    .. X. oX o. ...   Oo ",
"  o.. ooX  o O ooo.X  ..X  . o..      .    ..oXo .X.o  .X   oOo   o.. ooX  o O ooo.  o.. +.X  o>O o   .    ..oXo .X.o  .X   oOo ",
"  ... o X  oOo oOo.   ..X .. o.   ...     .. oXo .@.o O X. . O .  ... o X  oOo oOo. >... +XX  oOo o..     .. oXo .@.o O X. . O .",
"    . o .  ooo  O .   ..X .. o.   ...     .o. @o  @.o oo..   O .    . o .  ooo  O .    . +X.  ooo  ..     .o. @o  @.o oo..   O .",
".  . .o .    o  o...oo. ..X..o. O.  . o    o .@o o@ o  . X   O  .  . .o .    o  o...  . .+X.   >o   . o    o .@o o@ o  . X   O  ",
"...  .o .#...o      oo.XX. ..o.. .....  ..  ..@o  @ o O. o O.Oo ...  .o .#...o     ...  .+X.#...o  ...  ..  ..@o  @ o O. o O.Oo ",
"...  .o . X..o     o  .X..... ..O ...   .. .. @o. @ o o.    .Oo ...  .o . X..o     ...  .+X. X..o  ..   .. .. @o. @ o o.    .Oo ",
". ....  ....  . o. o.........  .O.XX.  .. ....@o. @ o  .   .Xooo. ....  ....  . o. . ....+X....  . X.  .. ....@o. @ o  .   .Xooo",
" ...    X. . ...o  o   .. ...o .o... . ....#. @o   .o. ..  o..oX ...    X. . ...o   ...  +XX. . .... . ....#. @o   .o. ..  o..oX",
" ..X   oX. X. . o  o   .. ...o   ... .o... XX @o    o. X . o .o. ..X   oX. X. . o   ..X  +.X. X. . . .o... XX @o    o. X . o .o.",
"  .  .  X. . O. o.  ..  .   .o   . ... ..X.XX @o    o .X   o .o.  .  .  X. . O. o.   .  .+XX. . O. ... ..X.XX @o    o .X   o .o.",
"  ....  .. X.o .o.      .   .o   ..X.. ..X.X. .o... o..Xo  o .o.  ....  .. X.o .o.   ....+X.. X.o .X.. ..X.X. .o... o..Xo  o .o.",
"  . ..  .#...o.. .      .   .o  o..X.  .XX.X.. o... o .. .    o.  . ..  .#...o.. .   . ..+X.#...o..X.  .XX.X.. o... o .. .    o.",
"  .. . ..X . o..o  ...  . .  o... . ........ .  ....o ..o.   oo   .. . ..X . o..o    .. .+#.X . o.. ........ .  ....o ..o.   oo ",
". .. o . X . o..o. ...  . .  o  ....o.. .... ..O ...o .X..    o . .. o . X . o..o. . .. o+# X . o...o.. .... ..O ...o .X..    o ",
". ...o  .XO. o . .  ..  .    o  ....o. ....X ..o .    ..   .. o . ...o  .XO. o . . . ...o+X.XO. o ..o. ....X ..o .    ..   .. o ",
"  ...o ...O. o . . .    X.  o    . .o... ..X ..o .   ... . .. o   ...o ...O. o . .   ...o+#..O. o ..o... ..X ..o .   ... . .. o ",
"  .. o ... . o . . ...  X.    ..... o... ..X . o    ... ..  . O   .. o ... . o . .   .. o+#.. . o . o... ..X . o    ... ..  . O ",
" ....  . . ..oo o o... .X ....  ....  .   .X . O o........ ...   ....  . . ..oo o o .... +# . ..oo .  .   .X . O o........ ...  ",
" ..... .XX...o .o  ... .  ..... .  ....X...X ..o  ...X.... ..    ..... .XX...o .o   .....+#XX...o .....X...X ..o  ...X.... ..   ",
"  .... .X#...o .o o...    ..X..  . ....XX..X ..o o...X .   X.  .  .... .X#...o .o o> ....+#X#...o .....XX..X ..o o...X .   X.  .",
"  ....  .X.  o  . o   o   ..X . o. ... ... o.. o o ..  .  .X.. .  ....  .X.  o  . o  ....+X.X.  o  ... ... o.. o o ..  .  .X.. .",
"  ....  ... #o.   o       X.. . O.o..... . #.X o o ..o    .O..O   ....  ... #o.   o  ....+X... #o. ..... . #.X o o ..o    .O..O ",
". ....  ..X.Xo o .    o   X..   O. ..... X.X. oo.o ..   .. . . o. ....  ..X.Xo o . . ....+X..X.Xo o..... X.X. oo.o ..   .. . . o",
".  . .   .X..o  ...   o   XX.    .  ...  X...  o.   .o   .X.  O .  . .   .X..o  ....  . .+X .X..o   ...  X...  o.   .o   .X.  O ",
"   . .o  .X.. .o...   o   .X.       . .  X.. .oo.  o..   .X. . o   . .o  .X.. .o...   . .+X .X.. .o . .  X.. .oo.  o..   .X. . o",
"..   .   X......... ..    .X        ... .......o.   ..    .  o ...   .   X...........   .+X X...... ... .......o.   ..    .  o .",
"..  O   ... ...  ......   .. ..    O . . . ... o...     . . .o ...  O   ... ...  ....  O +X... ... O . . . ... o...     . . .o .",
" .  ooo  X. ... .  .    oo..       oo    . ... o ..  O  .  ..    .  ooo  X. ... .   .  oo+X X. ... oo    . ... o ..  O  .  ..   ",
"     oo  X. .....  .oo  oo..        o o O. . ..o  . o      ..  o     oo  X. .....      >o+X X. .... o o O. . ..o  . o      ..  o",
"    O o OX.  .... ..      ..     X O  oOO.   ..o ... O..  X..       O o OX.  .... .    O +XOX.  ...O  oOO.   ..o ... O..  X..   ",
"    o o OXX  .... ..o   ...  ..  . o   O .   ... ..   ... . ...     o o OXX  .... .    o +XOXX  ...o   O .   ... ..   ... . ... ",
" o    o  ##.  .  ...o .    o ..  .      .X. o.  .X.   . X .. ..  o    o  ##.  .  .. o  > +X ##.  .      .X. o.  .X.   . X .. .. ",
" o  O o  #X. ..  . .  ..   o..   . O .  ...  .  .X..  . X X.  .  o  O o  #X. ..  .  o  O +. #X. .. O .  ...  .  .X..  . X X.  . ",
" o..  o  XX....  . . O  ..  ..   ..     .... .  .O..O   . X. ... o..  o  XX....  .  o..  +. XX....      .... .  .O..O   . X. ...",
" o..  o  #.... ..     o    .   o ..     Xo..  .. . .    .oX. ..  o..  o  #.... ..   o..  +. #....>.     Xo..  .. . .    .oX. .. "
};
