/* XPM */
static const char *tbTXTR[] = {
"45 15 256 3",
"000 c black",
"001 c #030202",
"002 c gray1",
"003 c #070605",
"004 c #060606",
"005 c #070706",
"006 c #090909",
"007 c #0A0909",
"008 c #0D0D0C",
"009 c gray5",
"010 c #10100F",
"011 c #111010",
"012 c #141312",
"013 c #141313",
"014 c #141412",
"015 c #141413",
"016 c #171615",
"017 c #171715",
"018 c #1A1A19",
"019 c #1B1A19",
"020 c #1D1D1B",
"021 c #1E1D1C",
"022 c #20201F",
"023 c #21201F",
"024 c #242322",
"025 c #242422",
"026 c #272725",
"027 c #272726",
"028 c #282625",
"029 c #282725",
"030 c #2B2A28",
"031 c #2E2D2B",
"032 c #31302F",
"033 c #353332",
"034 c #353432",
"035 c #383735",
"036 c #3B3A38",
"037 c #3E3D3B",
"038 c #42413E",
"039 c #454442",
"040 c #504E4B",
"041 c #565451",
"042 c #595854",
"043 c #5C5B57",
"044 c #5D5B57",
"045 c #605E5A",
"046 c #63615E",
"047 c #6A6864",
"048 c #6D6B67",
"049 c #706E6A",
"050 c #716E6A",
"051 c #74726D",
"052 c #777570",
"053 c #7B7874",
"054 c #7E7B77",
"055 c #817F7A",
"056 c #84827D",
"057 c #85827D",
"058 c #888580",
"059 c #8B8983",
"060 c #8D8A85",
"061 c #8F8C86",
"062 c #928F8A",
"063 c #95928D",
"064 c #98958F",
"065 c #999690",
"066 c #9C9993",
"067 c #9F9C96",
"068 c #A29F99",
"069 c #A9A6A0",
"070 c #ACA9A3",
"071 c #B0ACA6",
"072 c #B6B3AC",
"073 c #BAB6AF",
"074 c #C0BDB5",
"075 c #C4C0B9",
"076 c #C7C3BC",
"077 c #CAC7BF",
"078 c #CECAC2",
"079 c #D1CDC5",
"080 c #D4D0C8",
"081 c black",
"082 c black",
"083 c black",
"084 c black",
"085 c black",
"086 c black",
"087 c black",
"088 c black",
"089 c black",
"090 c black",
"091 c black",
"092 c black",
"093 c black",
"094 c black",
"095 c black",
"096 c black",
"097 c black",
"098 c black",
"099 c black",
"100 c black",
"101 c black",
"102 c black",
"103 c black",
"104 c black",
"105 c black",
"106 c black",
"107 c black",
"108 c black",
"109 c black",
"110 c black",
"111 c black",
"112 c black",
"113 c black",
"114 c black",
"115 c black",
"116 c black",
"117 c black",
"118 c black",
"119 c black",
"120 c black",
"121 c black",
"122 c black",
"123 c black",
"124 c black",
"125 c black",
"126 c black",
"127 c black",
"128 c black",
"129 c black",
"130 c black",
"131 c black",
"132 c black",
"133 c black",
"134 c black",
"135 c black",
"136 c black",
"137 c black",
"138 c black",
"139 c black",
"140 c black",
"141 c black",
"142 c black",
"143 c black",
"144 c black",
"145 c black",
"146 c black",
"147 c black",
"148 c black",
"149 c black",
"150 c black",
"151 c black",
"152 c black",
"153 c black",
"154 c black",
"155 c black",
"156 c black",
"157 c black",
"158 c black",
"159 c black",
"160 c black",
"161 c black",
"162 c black",
"163 c black",
"164 c black",
"165 c black",
"166 c black",
"167 c black",
"168 c black",
"169 c black",
"170 c black",
"171 c black",
"172 c black",
"173 c black",
"174 c black",
"175 c black",
"176 c black",
"177 c black",
"178 c black",
"179 c black",
"180 c black",
"181 c black",
"182 c black",
"183 c black",
"184 c black",
"185 c black",
"186 c black",
"187 c black",
"188 c black",
"189 c black",
"190 c black",
"191 c black",
"192 c black",
"193 c black",
"194 c black",
"195 c black",
"196 c black",
"197 c black",
"198 c black",
"199 c black",
"200 c black",
"201 c black",
"202 c black",
"203 c black",
"204 c black",
"205 c black",
"206 c black",
"207 c black",
"208 c black",
"209 c black",
"210 c black",
"211 c black",
"212 c black",
"213 c black",
"214 c black",
"215 c black",
"216 c black",
"217 c black",
"218 c black",
"219 c black",
"220 c black",
"221 c black",
"222 c black",
"223 c black",
"224 c black",
"225 c black",
"226 c black",
"227 c black",
"228 c black",
"229 c black",
"230 c black",
"231 c black",
"232 c black",
"233 c black",
"234 c black",
"235 c black",
"236 c black",
"237 c black",
"238 c black",
"239 c black",
"240 c black",
"241 c black",
"242 c black",
"243 c black",
"244 c black",
"245 c black",
"246 c black",
"247 c black",
"248 c black",
"249 c black",
"250 c black",
"251 c black",
"252 c black",
"253 c black",
"254 c black",
"255 c black",
"080080080080080080080080080080080080080080080080080080080080080080080080080080080080080080080080080080080080080080080080080080080080080",
"080080080080080080080080080080080080080080080080080080080080080080080080080080080080080080080080080080080080080080080080080080080080080",
"080080080080080080080080080080080080080080080080080080080080080080080080080080080080080080080080080080080080080080080080080080080080080",
"080080080080080080080080080080080080080080080080080080080080080080080080080080080080080080080080080080080080080080080080080080080080080",
"080080080080080080080080080080080047047047047070080080080080080080080080080067070080080080080080080080080080080080080080080080080080080",
"080080080016000000024072080080080047033019047070080050066080047079080047050034038070067070080067070047067045080072045080080078044051080",
"080080054000000000000000080080080080047019080073004040001004071021075006067033038070047057080047057019004047004008037004074002044034057",
"080080042000000000000000080080080080047019080051000047014004080000023059080047057080047057080047057019053080000031047004063000042063070",
"080080057000000000000000080080080080047019080054000047047026080000025059080047052080047050080044057019057080000029047026057068042008058",
"080080080018000000026072080080080080047009080080056000000002027056080000079076000057078001000002057009057080056004000002061000000000079",
"080080080076057045078080080080080080067047080080080051068079047079080047070080046072080055061066070047070080080073044079080070044063080",
"080080080080080080080080080080080080080080080080080080080080080080080080080080080080080080080080080080080080080080080080080080080080080",
"080080080080080080080080080080080080080080080080080080080080080080080080080080080080080080080080080080080080080080080080080080080080080",
"080080080080080080080080080080080080080080080080080080080080080080080080080080080080080080080080080080080080080080080080080080080080080",
"080080080080080080080080080080080080080080080080080080080080080080080080080080080080080080080080080080080080080080080080080080080080080"
};