/* XPM */
static char *result[] = {
/* columns rows colors chars-per-pixel */
"128 128 55 1 ",
"  c #2B230F",
". c #332B13",
"X c #3F2F17",
"o c #533F2F",
"O c #1B1B1B",
"+ c #5F4B37",
"@ c #67533F",
"# c #8F7753",
"$ c #775F4B",
"% c #9F8363",
"& c #170F07",
"* c #131313",
"= c #7B634F",
"- c #1F170B",
"; c #937B63",
": c #5F4323",
"> c #533F1F",
", c #4B371B",
"< c #8F5F37",
"1 c #BFA78F",
"2 c #F7AB7B",
"3 c #FFB383",
"4 c #836B57",
"5 c #A78F77",
"6 c #AF977F",
"7 c #272727",
"8 c #B79F87",
"9 c #43331B",
"0 c #2F2F2F",
"q c #774F2B",
"w c #D78B5B",
"e c #DF9363",
"r c #BF7B4B",
"t c #7F532F",
"y c #6B4727",
"u c #9B633B",
"i c #070707",
"p c black",
"a c #373F27",
"s c #FFBB93",
"d c #232323",
"f c #E79B6B",
"g c #B37347",
"h c #AB6F43",
"j c #CB7F4F",
"k c #875733",
"l c #A36B3F",
"z c #CF8353",
"x c #373737",
"c c #13230B",
"v c #FFC79B",
"b c #FFBF9B",
"n c #EFA373",
"m c gray23",
"M c #4F3B23",
/* pixels */
" .7 9XX9XXx-**&iiiiii*i*O*O.OX##+X X,.%o&*&*..***X=XO*O X.*O-X=uugh;qX *****>y@@tt@X&o@ &iiiO*.*&&iiii&O- X$+XX &iii*X 797.7X777",
"777.9XX,X0a-O&*iii*ii***&OOX:tt===$+ iOq+t#;u;#@i.+#l#y:,*i$;8eb3vvb28#$X*****&& .:oo+  .*i-#h3vvvf6uy9O&*&X.  O*iii&a.79..7X777",
" 77.-dX,X9a-***&*&i*iii*OOO+=4;%%%;4=+@<%5z222286g=oXoX..&;888esssss211%#@*&*&*&** .oX i=$;e22bvbb316%<@Xo,XX.  -iiX*a 097.xO 77",
"   p*O9,XXM-1;q&&*iii*&OXo==h62ss2j;o=#5ze2f332e28rg=X XX;88111f333f1185#yX*&ii*&**&* t#rw11ww2nss3w5%44+X822j%o X>k*a  X 7p&O.7",
" 77OO 9,X9M-1;6t**iiii*.o;%683333z;o$#5r13nnss3e22z6g#o++%6813w1w11w185#==o*iiiiiiiii=%1w16611e33215;=q:oX;82f1jl>@@*a .X  -O 07",
"7  7.X99X9M-;#<==*&iii*,4%12222284o$=;5j23333f221w865;=>+%6we3f8zzzz336;##Xoiiiiii*i=%r116;%6r12e15u=+oX.  u221rr%ky*X 0X. .d.77",
"7 c 9X9XX9a-#@@+:+**i&o##12188r8kX+=#;%j2222221w165lh#@-.%6#oXXX+oX - X:%<.X -*iii&i46111r<u%%r115u=@oo.O*&o%66%l=<y*a 9X . 7.7 ",
"7   9..99XM-<>ooXo@*io#;;1216h##@X+$##%6688z8865%####=>-.;+X   O.$*&   .X@X.o .. &i@%6r66%###k:+oXX++o.Oiiii=4=$$$+kOX .X  .7.  ",
" 7 .9XX999x-=+...o:@+#<#;6166%$@.Xo+$##;%5566%;#=####y.*q,.    .>oX-     XX*XoXXk;%r66h%%%%$XX -OOO** -O&iii,oo++>X.*a  9  0 . .",
"   c9XXX90a-ooo.o+@o#=oX .o=%%$o.OXXo+y$==4#<4$@@$$q$o .o:.....oo oX     XX*.+#11223v3b265;oX  ---OOii***&iii .XX. O*o 79d 7  . ",
"   .OdXX,9a-,o=oo@@<=oX. . OX++.i& XXXo+$=t$$@+o>+q$@X.>+,oooo$:XXX$XXXXXX$XiX611wssbb31w15o      -O*iiiiiiii**&*&*&*X 097 .Od  ",
"   p&OXXX.M-o+%+==u#@ .    &i*Oii*OO.XXo+@q@+:oo+@$$oX.#u+$=#t$,XXX+$$=@++u@i.h%%r1133331116#X    .oo.iiiiii*iiiiiii&X.7X7di*-. ",
"   OO X,X7x&t#%o+q@%@      *ii*iii*O..Xoo:++oooo+@@oX..=#+o. o$XXXX,XO*&.o+o*i4444%%122216#$o,@o+oo.*iiiiiiiOiiiiiii&a9.X0.-O  X",
"7 . 97XXX.M->++X.  X#o**  oX iipii*OXoooo++ooo#533bbn31%+.*i @#=$=+=@.*i**.-*io+@4#%6%u=$$+X  Xo *iiiiiiiiiiiiiii*&&*a. X 777.  ",
"7 779.XX77o&uoX *ii**>u@,, **iii***O.XXo+++o=;12bvvvb38g#@X oXoo+oX .X.ipip*O*Xo+$#%4X    #X O X@ iii*iiiiiiiiii&***&X 9X .7..  ",
"   70XXX.7a&1r;@-iiii&***iiiiiii****O  O .+#lz33ssss316%<=+oX++:+oX@X*-ipii*O&O .+44X OOOO+ ...Xq%+.iiiii.o@@@o.*&-+&X..X.7. . 7",
"  .70XX..Xa-%#h8;:*..Oiiiiiiiiiiii**O-*&&iy56w12e22211r%4$+oXo@u%#<yXOipiiiii*&* .$o OO-O $.oo+$%%%@X..=63bbbe8h=o+k*X  .7.7  . ",
" 77779XX7.x-#l%#<#$tq.iiiii*i***ii*O*&***i4511w18z881115=+, .o$+o>o@oX.iiiiipO&*& :X.OOO o#Xo$o>+. X.#6w2snssnn2j%#$&m 0 7.  .  ",
"  7xOdX77.a-+k$q@+o$@to*ii.*i**iii*OO.***@##l%#4:XXXX,46$. -&.,9$#;u;##+9iiii*****Xo O- X%4$oooo$+X@;1222333ff221r%#&a.7 ..x-d  ",
"  7p&O....a*$$$ooX.**+XX .iii*iiii***.:+o@$o.o@=X   .Xot= *&O,=;6w3ssn28%#oi&*****O4  .@;oX+$+4%%6##128812222e116%#=&a977 .p&O..",
"7  OO 770.7*$$+XXOO&iOXXXiiiii9@$$+,ii Xo+XXX.X@@X..X,o+=Xii@##<h1fff328r%#@9******X#4$:XX.o4%6#@<$;128r%%555g%#4=$$*X 7.c.-O   ",
"7. 7.0.X.7x&:+ooX-**i*&O*ii.@%6w2211u4oO+,ooX.$+q4ooo:++=+O@$$t<#58222886h%t=@X****& XXXX. .XXX+###;616r%$$+++ooo++o*m..7..     ",
".  7X00X07a*>oX. O*iii*ii.t;62f3f321z5l@.++o,q  o5#;;;<4=+Xooo+$$#%%;=@$$4;l##t>&******O**   Xo#+XX .o=%%$ooX.  .XX.*X .777..7X.",
"7 ..770707x&X.O**i&iiii*,4;61e3ss32188%%@X+@%o .X=4@@=#=@.O  .Xo$@+oXXoooo@%5l%$X&**ii****** @<:XX. . OX++X O****&&*&a   .. . 07",
".77.7. 7.0x&&*iip*&ppiio4;%812fss3218z6%#o.+#$o.,k+.  X+o **& >oo. .X,,o,,:415%#$XO*&**&ii*.=;#  .    *i*OO*iiiiiiii*m. 7c 7.  .",
"77..X07..7x&**iiiiiiiio:=#%81w2333ew886%#@.:#4<###@:X.  -Oii*XXOO-@o+ooooo$%3jg%$oO**&i***.+$;%X      *ii*OO*iiiiiii&X .97 .  7.",
"7 77Odx0..m&X.&p&iiiii+@q=#g8122222286h#<@XX<55%%%4,X  ***i&**iii&X$%=oX+$@+@=$++oX*&*iii*X.  X#o**  ,X iii***iiiii**a   7 7Od7.",
"..Xp&O 7 .a&pipiipii-.>+++=;g81111865%l#$+XO+o++X.Xo. ii*Oiiii*&*iO* o+=>oX   .o+o ****ii  *ii**o;@,o **iiiiiiiiii**&X c ..i&-..",
"7.7OO 7007a&iiiiipppi.o>>o+$#;;uu;;##4=$+o.OX=$4++.  iiii.&iii***iX&O  o:oo.   .,=;813nss3w6;oii****iiiiiiiiiiiii*&*&a 79 .O- . ",
".0  7770..a&piiiiippiOXoXXX>y$4###4$@+oo.-**-o%%$+,o *iiiiO*iiiii&@-*-*o#;$@X o;8888w133333218%$Oiiiiiiiiiiiiiii*O-O&X .7 77 .7X",
"x.77 70777a&iiO-Oiiii XoX.Xo@@@@:+++:>oXO**iO*OXoo,o:o *ii.*iiii* @o&X@==@@@y;556r66556811118885;oiiii*i***iiii&OOOO&a7 .7 97.d7",
"7 77 777X7x&ii *iiipi X+oX.Xo+y:oooooo.OO&*pO& XXt;;5%;qoXi-&ii&9* +oo+X. +=#;l%<##<#;%688881111%#oii.*i**io+$q@yo99&m 7 . 77  7",
"  .7..70X x&#4$ipiiiOOXXoXO Xo:++:+oo.O-OO**O q;832svvv3j#X.*O& ii XoX. *o@==###=$$=###%688133186#@ .iiio@;j122w8%#k&X7.    d.  ",
"77 7  7.. a&2186l4@*iOOXoX.O :++$q$:oXXXX.- +;1efs2vvv2ne1%+X-*&ii  *****o+y@$k$ooooo++$#588866854o ii.@=%jw2333f26;*a. . . 70. ",
" ..xOd77..a&321865%4oOO.Xo.-.$+oXXXXXX..-**+u11123nsnss3wju<>Xiiiiiiiii**.Xoo@$$:oXX...o@555%##%#qo iX@=%j1132vvsf2r&a ..  xOd. ",
"7. p*-.7777&f21j65%##@OO.oXX@XO**O..  OO&p&t%6613311ww3wwj#t=.&ii**&ii-i*- XX:@$@oo...X@#4:o.-OOX+y .>$#%8133vvvv32j&XX 7 7p&O 7",
" . -O 777 a&22j85g%#<$-OO..o.*iii&O.. &ipii+h6w2nb2858sbbs6##o-*O&**&i*i&*OXoo++:o,X..o=#+oX --** oX.y##%813ssv3n2ej&X .7 7OO 7 ",
" 7 7. 77..a&8z6%%####$*...Xo.**i***...*iipi+%6#>XXX+>X O X+%#>*****iiiiOpii     .Xoooo@#4:X   -****OX@##h681e2331w16&X.7  .7..77",
"..7.7 07.Xa&<######4$@&+#Xo+@O*** XX-*-piiO+;+X OOO.q**O&  .@o*OOO*i*io@#;;;#=+      .@#%@XX.  OX:O*X+$#%%56811wjr5u*m.7 70  7 7",
".. 7 .0.X7a&#<#$$$y++> O++o+##<##t@ *iOO*i*$o   *-.>oXO*   .Xo**-O->tr1w2222w16#@..X  .@#;yo..X$o O*.o+$=#;;;hggu;#t&X .. .9.c  ",
"..7.. 7.7.a*#$@:+@++oo.O .Xooo,ooX **ipiOi.4,    .oo ,X  ...Xo*iOX=r1222e3f3e216#=X**& .@4$++$#o ***XX.oo+@$k#<<4q@>*x ...7....7",
". 77. 7.77M*$@+ooooooX. OO..X..  ..**ii--.ot$+,,+q+ O $XXXXXo$Xpo#6812223sss33185#$>O-** .+oX.  *OO*.  Xoo+++$$$$$@o-m 90..77.7 ",
" 7  Od..7.M*$y+ooooXXXX.=%esss316= ipii-X.#;=$=#=$o   :qt<<t$;Xoku58811e2sssn3216%t$>**O**iipi* *OX **O .,>oooo:@+,X*m X. ..-  7",
" .7p&O7 7.M*$++oXXXX..#122333322166#iiiX..t#=o. ,$XXXXX+X  .o:.:4#%5668113333e286%#=+X&*iiiii*o4X.@.*-OO .oo++++:oX.-X .c 9p&-..",
"7. OO   .Xa*ooXXXXX..#661e232111w2e1;@p.O oXO*i @#=q=:t@.*i* .-o$4#<%%56r811w186%%#$+X *pipi*X;6%;#O*XXXXX>+$$$::+. -o7 7 .O- 0 ",
"7. 7d07 ..M*XXXX....$4%h6111866666we6<t@O*O*i**.=#%%%#=@o-&*i*Oo+$k##<#l%%555%%;##$+>X OiiiiOoooX>@oi....XXXXXXo+q. *x X  7  77 ",
". 7. .77.7x*.......o+$4#;%55;<##%612r;$=@**&&* oXoo+oX .X.piip o++$$$$@y$4;;;4=$@+ooX  *iiii*  XXXXXOO*O- .. -**OX@X&X.7707...77",
"  7  d77 .a*O--  . .Xo++ooo:++$$hr6w6;$<=:X*&&&Xo++:o+oX OiiiiOXo+$qq+oo:+q$=$$+ooXX *i*ii*Oo#4++.OO.ipi* . O&iii&.o*a.77..7.  .",
"0..c7 7  .x*   O  *O .XX.  .Xoo$%%=o. XXo=oi**Xoo@;%%;@X  iiipOX>+$$$y:oo+++@@+ooX. -*iii*.@4kk;#$$oOiii*..O***i&&.o*X. .  70. 7",
"7   0 77 .x*o>X.. **********O X++XO O-  Xo=@i&o+qq+ooo@oX OipiOXo:+@@@:oo,oo++ooX.. *iipi*.o@$$##4$o*ppi-*OXX ***O@:&X7 770 0 .9",
"   xOd 7 .x*-oo@@oiiiiiiiiiii*OO*i*-O-O  o#t=@***--O--OO  OOpi-..X>o+:+o,.X,++o,,X.O*iiiii.ooooooooi&.&O-i*&@t<####:im . ..x-  X",
". 7p&-77 .x*XOXo>oiiiiiiiiii*O-&ii*---   o%@y+o*-OOO-OOOO&OOii*-..Xoo++oo .o=$+oX..O&&**iiiiippiiiiiiiO.*i*& X,ooooo&m 7..0p&O. ",
".c.OO 07 .x*:X*XXX&***iiiii***iii Xo  **>#o  .X.OOO-O-*O-OO*ii*- O .Xo:oX.>t+. O  O****i o<g812228%#@OOO i**..  ..X.*X . 9.OO  7",
"    7.77 7x&++.-OX*****iiiiiiiiii** ,+@u$X&ii* .-OO-OO---*&*ii*-O.  .XXXXoqX*i***OO**i o#%82e3f333f21%+OoX@ooo. ....*o .9  97.  ",
" . 7. 7 ..x&ooXOOXXOO&**iiiiiiiiiiiii*&&*iiiiO* -O--OOO-o@=<@@X&O  +o..X.oo&ii*****O* @;%%681w2e2ee211u#oo+$$+X ..  *X..7. .... ",
".0. 7.  ..a*o#%%%#@OOOOO*iiiiiiiiiiiiiiiiiiii O*OOOOO9#682221r;=,--XX+,X.o+O***&*OOO @4#<#;556668888661w;XXooXX   - &m .9..7.77 ",
"7.  ..77 .a&8fff2e2%t.O-O*iiii**&i*iiiii.....,oO.--X=62sss18r;6;;5h;qXX$+++@$y@+X *&o@q$y$$$$$4#;%66611%<=+OOOO--- i*X7 9c ..  .",
".77. 7.70.x*1sbbb2221%+.O*iii.Xo=t$+.. >+=<;uu#@oXo<6w2fsw5;6822vsvbe8#qXXoooooX ii Xo++oooo#%3bbb36;4ko..:=XOO-- ii*X  79 77 c ",
"7. xOd 7..x*zf3f21zw115#.&&.+4;h%%;4=+@#%5822e286g=o68231%;z882sbvbs2w1%#XX.  -OOii....o=$;222bvvv316%#@X  o4XOO*iii*X.... xOd. ",
".  p&O 77.x-1;$6118zjz11;.+=h62ss28;o=#58223f32e2z6ltl1w%;881113333f1185#@X. O--***  o=#61w1112bvb315%44+X822j%>**io*X .9..p*-..",
". .OO .77Xx*1;6=;%55j118<;%68f3338;oq#5r13nsssf22e8r%<%%;%681311111118g#==o OO-X9+>..=%1116611233e15;=$+oX;82318l$gw*X...  -O   ",
"  0 .97  7a*u##t=%%6%lqX4%12e22284o$=u5j23333f2211j65;=o+%61e33z888zf36;<#X>-Oo<%4o.@%r116;%661e215;=+oX.  ;22166%51OX9 ..7 7...",
" . 7. dd0.a-#@y++:#@oX4##1e1j8684X+=#;%82e2eee11w65l%#@O:h6#oXXX+oX O X+%#.X9@<%64o.4r1116<;%%r11g;=@oo.O**o%66%l=kw*m.   . .  c",
". d. 7777 x&#oooXo@*&@#;;1216%##yX+$##%66z888865l###<=oO=;+X  OO.$*&O  .X=X.o=;gr#>.%r666%###4++oXX++o.Oiiii=4=$$$+u&m..70    0.",
" 7. .0 0 0a&=+...o:@+###;616r%$y.Xo+$##u%5566%;#=####y.&$o.  O-.>oX-O    XX*X44;;;h6r6%%%%%$XX -O**** OO*iii,oo++oX.&X.. .  .79 ",
" 7  d7.d 7a*ooo.o+@o#=oX .o=%%q>.OXXo+@$t=4##k$@@$$$q> .o:.....oo oX     XX&.+#6webvvvb265;oX  ---O*ii****iii .XX. O*X ..7   .  ",
"   xOd.7.7a*oo=oo@@#toX. . OX++.i* XXXo:$t=$q@+o>+$q@X.o+,oooo$+XXX$XXXXXX$XiXg811ssbb3111go      O-*iiiiiiii**&&*&*iX. ..7 -d..",
" . i&-.  .m*,+%:==;#@ .    *i*Oii*OO.XXo+@q@++oo+yq$oX.#uq$=#t$oXXX:$q=@++;@p.%%%6w1333311w6#X    .o>.iiiiii*iiiiiii&X....ci&O.7",
"   OO 07.7a&t#%o+$@l@      *ii*pii*O..X>o++:ooo>+@yoX..=#+o. ,qXXXXoXO**.>+o*i444k%%122216#qoo@;;4@.*iiiiiiiOiiiiiii*X.7  .     ",
"....X707.0x&>:+X.  X<o**  oX iiiip*OXo>o>+:oo>#53f2bn31%+.&p @#=$=+=@.*i&*.O&io+@4#%6%;=$$+X  X; *iiiiiiiiiiiiiii****X ...9 X   ",
"d 7 X7.. .a&;oX *ii**o;@oo &*iii***O.XXo+++o=u122vvvb385<@X oXo,+oX .X.piii*O*Xo+$<%4X    <X O Xriiii*iiiiiiiiii***&*X  7 ..77 .",
" . .... .7m*1r;yOiiii****iiiiiii***&O  O .+<l8ffssss316%#=+oX:+++oX@X*Opiip&O*O .+44X OOOO+ ...X$rXii.iiiiX$$$X*&&O:*X.. 7..  07",
" .  X. ..7m&%#%8;+&..Oiiiiiiiiiiii**O-***i@561122222116%4$+oXo@;%#<@XOpiiiiii*** .$> OOOO $.oo+$%%%@OOi=63bbb28%=X+4*X 77  77.  ",
" .7.X...c.a*<%%##<$=$.iiiii*i***ii*-*****p4g111w88881w1g=+o .,$+ooo@oX.ppiiiiO*&* +X.-OO o<X,qoo+. X.#r12nssssse8%#$*a 9.  .7 0 ",
" .7.Od.. 7x*+4q$@+oq@=o&ii.&i**iii*OO.***@##%%<4+XXXX,46$. -*.o9$#;u;##+9iiii*&***Xo OO X%4$oooo$+X@u1222333332266%<*Xc .7..-d77",
" . i&O7 7.M*qq$ooX.**+XX .iii*iiii***.::o@$o.o@=X   .Xo== **Oo=;613ssn2z%#op*&&***O4  .@;oX+$+4%%6#<128812222e116%#=OX .c79i*-..",
"7. -O 0 .Xa*$$+XXOO*iOXXXiiiii9@$$+opi Xo+XXX.X@@X..Xoo:=Xiiy###%1333f286%<@9***&**X#4$+XX.,4%6#@#$;12jr%%555g%#4=$$Oo  7 .-- 0 ",
"7. 7d07 ..M*++ooXO**i**O*ii.@%612211;4oO+,ooX.$+$4,,o:++=+O@$q=##5822ez86%%==@X&**** XXXX. .XXX+###;61r6%$$+++ooo:+o*. X     77 ",
". 7.7.7 .7x*ooX. -*iii*ii.=;r233332185%@.++oo$  o5#;;u<4=+Xooo+q$#%%u=@$qk;%##=o&******O**   Xo#+XX .o=%%$>oX.  .XX.&X. 7  ...77",
" 07 dd77 .a*X.O**i*iiii*o4;6123ss32188%%yX+y%o .Xt4@@=<=@.O  .Xo$@+oXXoooo@%5%%$X*&&ii&****& @#+XX. . OX+:X O****&***X.7 ..7.7 .",
"0.. 7 77 .x&**iii**piiiok;%8123ss321886%#>.:#$o.,k+.  X+o &** >o>. .Xoooo,+k15%#$XO**&**ii&.=u#  .    *i*OO*iiiiiiii&X. . 0  . 7",
" 07  777 ..**&iiiiiiiio+=#%8112f3321886l#@.+#4<###@+X.  OOii*XXOO-@o+oo,o,q%385%$oO***i***.:$;%X      *ii*OO*iiiiiii&X  77 70 .9",
"   x-d77 ..*X.*i&iiiii+@$=#5j12222228r%##@XX#55l%%4,X  ***i***iii*X$%=oX+$@+@=$++oX***iii&X.  X#o**  oX iii***iiiii*im .0...O  X",
". 7i&-77 .x*iiiiiiiiO.o+++=;581111865%%#$+XO+o+:X.Xo. ii*Oiiii***iO* o+=>oX   .,+o Xooooo>ooXi**o;@oo **iiiiiiiiii&&&X  ..0p&O. ",
".c.O- X7 .x&iiiiiiiii.oooo+$#;u;;;;<#4=$+o.OX=$4:+.  iiii.*iii**&iX*O  >+oo.   .o=;813sss316;oXi****iiiiiiiiiiiii&***X . 9.-O   ",
"  7  .X7 7x&iiiiipiiiOXoXXXo@$4###4$y+oo.O&*Oo%%$+oo *iiiiO&iiiii*@O*-*o#;$@X o;88z81w33fff2w8%q.iiiiiiiiiiiiiii*OO-&o .9  O7.  ",
" . 7. X7..x&iiOOOiiii XoX.Xo@@@@++:++ooX-**iO*OX,,oo+, *ii.&iiii& @o*X@==@@@@;55r666556811118885;oiiii*i***iiii&-O--*X.. . ....7",
".0. 7.X ..a*ii *iiiii X+oX.Xo+@+ooooo,.OO**iO* XX=;;5%;$oXi-*ii*9* +>>:X. +=#;%%#####;%6888j1111%#>ii.*i&&io+$$@+ooo&m7.9..7.7  ",
"7.  ..X7 .a&#4$piiiiOOXXoXO Xo+++++oo.-OOO**O $;8fbvvsvf8#X.*O* ii XoX. *o@==###=$$=###%688133186#y .iiio@;8we2w8%==&a7 9c7..  .",
".  . 7X7 .x*21j6%4@*iOOXoX.O +++$$q+oXXXX.- +u1e3sbvvvbse1h+X-**ii  *&&**o:@@$4$o,oo>+:q#58886r8g4o ii.@=%81233332r;*X   9777 c7",
"7. dOdX...x*f21j65%4oOO.Xo.O.$+>XXXXXX..O**+;w11e3snsss318;#oXiiiiiiiii**.X>o@$$+oXX. .o@5g5%##%#$o iX@=%8w13bbbs3e6&X....7 - .0",
".  i&OX...x-321865%##@OO.oXX@XO**O..  OO*i*=%6613fw111f118#==.*ii***ii-i*O XX+@$@oo.  Xy#4:o.-OOX+@ .o$#%8133bbbs328*a .9..p&-..",
". .OOOX.7Xx*eej855%##qOOO..o.*iii*O.. *iiiit%61enb2j5zsbbsr#<oO*O***&i*i**OXoo+++ooX .o=#+oX -*&* oX.y#<%j13ssss3e28*a... 7OO   ",
"  0 X.X..7a*88r%%####q*...Xo.**i***...*iiii=%r#>XXX:oX O X+%<o*&*&*iiiiOiii     .Xoooo@#4+X   -&***OX@##h6j122221ww6OX97..7 oX..",
" .  XXX...a-#######4$@&+#Xo+@O&** XXO*Oipi-=u+X OO-.$**O   .@o*O-O*i*io@#u;;#t+      .@#%@XX.  OX+O*X+$#%%568w11865;*X. X . X.  ",
".7d XXXXX.x&###$$$@++o O++o+#####=@ *iOO&i&$o    O.ooXO    .X>**OOOo=6112222w16<@..X  .@#;@>..X$o O&.o:$=#;;;%5guu<=OX..X .7X 0.",
".. ..7 .7.a*<q@++@:+oo.O .Xoo,oooX *&iiiOp.4o    .oo oX  ...Xo*pOXtrw222ef3322w6<tX&*& .@4$++$#o ***XX.oo+yq4<#<4$@>&x7...7....7",
". 77. 7.77M*$@+ooooooX. OO..X..  ..**ii-O.o=$+oo+$+ O qXXXXX>$Xio<6812e23bsvb3w85<$oOO** .+,X.  *OO*.  Xoo+++$$q$$@oOX 9 .. 7.  ",
"77 7Od..7.M*$@:oo,,XXXX.=%2ssn316=XiiiiOX.#ut$=#=$o   +q=#<=$;Xo4;g8811e2sbbs321r%=$o**O**ipii* *OX **O .ooo>o>:@+,X&X7X. ..-d77",
" .7p&O7 7.M&q:+oXXXX..#122333f22166#XiiX..t<to. o$XXXXX+X  .o+.+k<%56rj1133332e86%#=+X**iiiii&o4X.y.*OOO .,o+++:+oX.-a .  9i&-..",
"7.7OO 0 .Xa*ooXXXXX..#66122321111221;yX.O oXO*i y#=q=:ty.*i* .Oo$4#<%%5668w1wwz6%%#$+X *iiip*X;6%;#O&XXXXXo+q$$:++. Oo7 7 .OO 0 ",
"7.77d07 ..M*XXXX....$4%hr611866666126#=@O*-*i**.=#l%l<=yoO**i*O>+$4<#<#%%%g5g%%;##$+oX OiippOoooXo@,i....XXXXXXo:$. *x X07   77 ",
". 7.7.77.7x*.......o+$4#;%55u###%6126;$=@X**** oXo,+oX .X.ipip o+:q$$q@@$4;;;4=$@:ooX  *iiip*  XXXXXOO*O- .. O**OX@X&X. 7 7...77",
" 07 dd7  .a*-OO  . .Xo++ooo+++$$h66w6;q#=+X****Xo++:o+oX Oipii-Xo+$q$:oo:+q$t$$+o,XX *i*pi*Oo#k++.OO.iip* . O*iip&.o&X.7 ..7.7 .",
"0..c7 77 .x*   -  *- .XX.  .X,o$%%=o. XX>=oX*&X,o@;%%;@X  iiiiOXo+$$$y+oo:+:@@+ooX. O*ipp*.@4k4;#$$oOiip*..O&**i&*.o*X. . 0 0. 7",
"707 0 77 .x*ooX.. &*********O X:+XO -O  Xo=@XXo+$$:ooo@oX Opii-Xo:+@@@+>oooo+:>oX.. &piii*.o@q$##4qo*ipiO*-XX *&*O@:*a   7 7 7.9",
"  7xOd77 .x*Oooy@>iiiiiiiiiii*O-*i*----  o#==@o.*OO-O-OO  OOiiO..X>o+++oo.Xo+:oooX.O*iipii.ooo>ooooi*.*OOi&*y=##<<#:iX .0..xOd X",
".c7p&O77 .x*X-Xoo>iiiiiiiiii*OO*ii*---   o%@@+o-OOOOOOOO-*-Oii*O..X>o:+o, .o=$+oX..O****piiiippiiiipiiO.*i&* Xo>,,>o*X  .. p*O. ",
".c.OO 07 .x*+X&XXX&***iiiii*&*iii Xo  **>#o  .X&OO--OO*-O-O*ip*O O .Xo:oX.o=:. O  O**&&pio#g812228%#@OOO i**..  ..X.&a . 9.-O  7",
"7   7.77 7.&++.OOX**&**iiiiiiiiii** ,+@;$X*ii* *OOOOOOOO-**&pp&OO.  .XXXX,$X*p*&*OO*&ipo#%8223333332w%+-oX@ooo. ....*o7.9  97.  ",
" . 7.777..x&>oXOOXXOO&**iiiiiiiiiiiii*&**iiiiO**OOO--OOO,@##4yX*O.@+o..X.o>*ip&&&**O*i@;%%681122222211;<oo+$$+X ..  *a..7.7....7",
".0.77.  ..a*>+$X-O OOOOO*iiiiiiiiiiiiiiiO..*i O*OOOOO9#6822216;t,-O@u+oX.o+O*****-OO*@k###;g56r688z86611;XX>oXX   -i&X7.9.. .77 ",
"7.  ..77 .a&83332e2%=OOO-&iiii**&i*iiiii.$=$o*.O.OOX=62ssnss3w85#y9Oo$#$+++y$@@:X **o@$$@$$$$$k#;h66611%#=+OOOO*iiii&X779c ..  .",
".77. 7.70.x*1sbbbb221%+-O*iiiii**i*.ii*o=@$,.o .oXo#r1e3sbbs3186%<@XOXo>oo>>,,oX pi.Xo++oo,ooo@4#%%%%%$X...oXOOO*iii*a  79 7 7c7",
"7.dxOd  ..x*5v3v215w1w5#&**iiiii*iii. XX+X* @+y$:o<%68e3n2bn3w86%#$o- XXXXX.  OOOpi........XXoo@#u#@oX *-  .XXOO*iii*X.... .Od. ",
".  p&O777.x-hhh6w1888811;**iiiiiiiiiiXXXO* O@$+oX+<u681e3f33f18g%#$oO ....X. -OO***        .XXo:+o ** oX*--  @.&**ii*a .9..i&O..",
". .-O .77Xx*q$$=;%558118#=+**iiiiiiii*O=%8f33s26uo<l58812222185%#$+oO-..... OOOX9+<5885<$9  .X,>o -***o..&*O+%#.+$g6*a...  OO   ",
"7 0 .97  7a*XXo+=%%6%%$X.X,=X*iiiiiii+%12e233s28;X##u;%6888r%h##=@+o&i  .  *OO,#l12nss216;=o .o. *****o Xoo+%+9$g2eeOX97..777...",
"7.07. dd0.a-Xoo+#;#@oX *ooootX**iiii#51111e23ez%;.+$#####;;;4$q@+oo.*p   OOi9@<r112f33e8g<<#@ . ***** $ XoXX>#h11111&m.   . .  c",
".  . 77   x&XX+++ ****$XoooXo=***ii;w18811186%%#$OX+$#<#44<4$@:>oX. ip*O-OXy==lg1222e1jg##=$$@  **** +oo.XX$%r116;g1&X..7 7777 .",
"77. .0 0 0a&*X>oO*O-&&..oXXX+%,**+=#%188886%#$$++OXo>o+y$$@+>ooX.. *iiiO-o=#$#5%q$@=;%%#$$:oo>X.*&* oo.oX oh6116<<%r&X..7.  . 97",
"77   7.d 7a*&&>.O  -&*o X,o+%:. o,X.X$%%66%#$@+,X X>ooooo>ooXX...  iii*--$%#%%@ooo,XXo:@$oX.  O.@:+@>X  o+k6111r#t#%*X ..  77.77",
"0 7xOd.7.7a*&&.O  O-**$ XoXX.O*oX&*** Xoy#;#@ooXX Xoo+::>oXXXoooX  iiiiO$#%61$X....  .,oooo *** Xoo. ii& @%r666%#+@=iX. .. 0Od..",
"0.7p&O.  .m*&*& O**&*+=o.XXX..=o &** $&*** ++oXX *Xo++$<$+oo+@+oXX *ii oq#683<>.   .:u@ O XX*iiOi***ii&i&k%#%66%u+XX*m.... p&O. ",
"   O- 07.7a&***.**&&o%.,X X O#%+ &**..**OO*Oo>o ii.+oXXX,>XXX.....XOiiX>++$=y:@$+@$#%$X*iii .*i&iiiii&i& +$4%%h%;oX *X.   .     ",
"....X707.0x&iiio@ X@qOi o+o -=%%kto  o*&O  O.o ***XXO*p*  . OOiip&O-*  ot,.     X#ko *Oi*&&iiiiOii*ii***X,o+$#%%;>  *X7...97X 07",
" 777X7.. .a&i***X+X.*ii*.oX.O*OoX*** $**OO  O. &&&.O&*ii&.X Oiipii*O*XO&X. &*.oo+o  O*Xi***iii*.**i*iii ooX$$%%hh<+X*a 7 c..77 .",
" . .... .7m*ii*ii***ii*i*O.**&.oX**.ot:***&- .&**.+O**&*& ..**piii o&.*&i**& @q;#>*O*O@*iiiiO&O **iii**XooX+$q$+>X X*a..c .. d07"
};
