/* XPM */
static char *result[] = {
/* columns rows colors chars-per-pixel */
"128 128 66 1 ",
"  c #836B57",
". c #67533F",
"X c gray39",
"o c #775F4B",
"O c gray31",
"+ c #6F6F6F",
"@ c gray50",
"# c #7B634F",
"$ c #777777",
"% c #5F4B37",
"& c #5F4323",
"* c gray42",
"= c gray34",
"- c #5B5B5B",
"; c #937B63",
": c #574333",
"> c #434343",
", c gray28",
"< c #774F2B",
"1 c gray23",
"2 c #939393",
"3 c #533F1F",
"4 c #8B8B8B",
"5 c #838383",
"6 c #7F532F",
"7 c #533F2F",
"8 c #8B735B",
"9 c #6B4727",
"0 c #875733",
"q c #9B7F6B",
"w c #8F5F37",
"e c #775F3F",
"r c #675333",
"t c #6F5743",
"y c #3F2F17",
"u c #A78F77",
"i c #2F2F2F",
"p c #4B4B4B",
"a c #CF8353",
"s c #9F9F9F",
"d c #AF977F",
"f c #9F8363",
"g c #9F876F",
"h c #9B633B",
"j c #332B13",
"k c #373737",
"l c #A36B3F",
"z c #979797",
"x c #B79F87",
"c c #8F7753",
"v c gray70",
"b c #BFA78F",
"n c #2B230F",
"m c #B37347",
"M c #4B371B",
"N c #AB6F43",
"B c #43331B",
"V c #A7A7A7",
"C c #836B4B",
"Z c #4F3B23",
"A c #676B4F",
"S c gray67",
"D c gray75",
"F c #272727",
"G c #5B472B",
"H c #1F170B",
/* pixels */
">>,,,,,,,,,,,,,,,,,,,,,ppp,,,,,,,,,,,,,,,,,,,,,,,,,,,,,,,,,,,,,,,,,,,,,,,,,,,,,,,,,,,,,,,,,,,,,,,,,,,,ppp,,,,,,,,,,,,,,,,,,,,,>>",
">>pp>>>>>O>>p>>O>>OpppO=-OOOOpOpOpppppppppOppOppOOpp,pOOOpOpp,pppp,ppOpOOOp,ppOOppOppOpppppppppOpOpOOOO-=OpppO>>O>>p>>O>>>>>pp>>",
"OGOerrArp-prrGG--r---O-X*XX--O-O====o#o++*.*X**XX*+-=--*---==========---*--=-+*XX**X*.*++o#o====O-O--XX*X-O---r--GGrrp-prArreOGO",
"O%0h66fwcocww0w;c08;qq;q2442@#X.XXX+#8;422 2@224422224422442@+XXXX+@244224422224422@2 224;8#+XXX.X#@2442q;qq;80c;w0wwcocwf66h0%O",
"Oe0hwaumfufaaaadfauuuuxxxxvs28+.XX+@ ;guuuuuuuxddvvVVvvvvvvs25+XX+52svvvvvvVVvvddxuuuuuuug; @+XX.+82svxxxxuuuuafdaaaafufmuawh0eO",
"O#0NaaumfxfaamNgfadxxxduuVdxs;+.XX@@ quxxxxxxxbxxbxvvvSVVVSvs4+XX+4svSVVVSvvvxbxxbxxxxxxxuq @@XX.+;sxdVuudxxxdafgNmaafxfmuaaN0#O",
"O#hmlhfwcqcww0w;Cwcqq;g;q24gd;X.XX@2;ug2ssuss2u222224424224zS4X--X4Sz422424422222u2ssuss2gu;2@XX.X;dg42q;g;qqcwC;w0wwcqcwfhlmh#O",
"Oehl6<C6  e6<<6 e6o   8  @$ 2 -.XX+2;; 544;444q4555@$$@$@@$@2@----@2@$@@$@$$@5554q444;445 ;;2+XX.- 2 $@  8   o6e 6<<6e  6C<6lheO",
"O%0w6<e6  e6<<< e6o   8  @$ +#-%X-X+## @54;54@;@@@@@$$@$@@$@++-==-++@$@@$@$$@@@@@;@45;45@ ##+X-X%-#+ $@  8   o6e <<<6e  6e<6w0%O",
"&%90&&%9..%99&&t%9t#o. .#XX.X.=%-OXX.#oX*+oXX*oXX*X*XX+X+XXXXX====XXXXX+X+XX*X*XXo*XXo+*Xo#.XXO-%=.X.XX#. .o#t9%t&&99%..9%&&09%&",
"i3&&33:3%::3MyM7Z3:%:7%:%O,:O:,%->OO:%:OO=%OO=:OO=OO,,OO=O,OOO,==,OOO,O=OO,,OO=OO:=OO%=OO:%:OO>-%,:O:,O%:%7:%:3Z7MyM3::%3:33&&3i",
"iBnnBBBB111yyyB>ByM71kk17>>7,1>%->>>171>>,7>>,1>>,>>11>>,>>,,>>==>>,,>>,>>11>>,>>1,>>7,>>171>>>-%>1,7>>71kk17MyB>Byyy111BBBBnnBi",
"&ByyyyBB111yyyy>ByB11kk11>11>1O.-O>>111>>>1>>>1>>>>>11>>>>1>>>OXXO>>>1>>>>11>>>>>1>>>1>>>111>>O-.O1>11>11kk11ByB>yyyy111BByyyyB&",
"O3&&33:3%%%33yBOZyZ:Z:.%:==:O:-.O-OO:::OOO:OOO:OOOOOO===O==OOO-XX-OOO==O===OOOOOO:OOO:OOO:::OO-O.-:O:==:%.:Z:ZyZOBy33%%%3:33&&3O",
"O&r<99.&...&&3&X%&%.%. ..X*.-.-.-X--...-XX.XXX.XXXXXX**X-X*----XX----*X-X**XXXXXX.XXX.XX-...--X-.-.-.*X.. .%.%&%X&3&&...&.99<r&O",
"O&00wwowC o0w0l;c0c;c;;;;22;@#-.-XX+# q222q44@;4222245544224@+----+@4224455422224;@44q222q #+XX-.-#@;22;;;;c;c0c;l0w0o Cwoww00&O",
"O<0h8f8aC;fmmaaffadddxxxxduu2 #.OX+@ qquxxxxxxxxxxxvvvvvvSVs2@+--+@2sVSvvvvvvxxxxxxxxxxxuqq @+XO.# 2uudxxxxdddaffaammf;Ca8f8h0<O",
"O6hwfgfac;fNaaaxgaxdddddxxxxu;#.O-@4 quxbxbbbxxxxxbSSSSSvvvvs4+--+4svvvvSSSSSbxxxxxbbbxbxuq 4@-O.#;uxxxxdddddxagxaaaNf;cafgfwh6O",
"O6wl888wC cwwhhqcwgguuugzuqquq#.O-@2quq2s2uus2q2qq2sssszzs22s2+--+2s22szzssss2qq2q2suu2s2quq2@-O.#quqquzguuuggwcqhhwwc Cw888lw6O",
"&eww#6#6o o6<60 o6  ;qg;4g;828#.O=+2qq @4@;q4@ @@ @42z244z4525+XX+5254z442z24@ @@ @4q;@4@ qq2+=O.#828;g4;gq;  6o 06<6o o6#6#wwe&",
"&e06#<o<e e6<60 o6   ;; 5q88@ #.O=+5   @5@8;5@ @$ $@424@5255@@+XX+@@5525@424@$ $@ @5;8@5@   5+=O.# @88q5 ;;   6o 06<6e e<o<#60e&",
"O%0<e<o<e.e<660 o6   8  5;8 $#..O-X$# #@@@8;@@ $$ $@54@@545@$+XXXX+$@545@@45@$ $$ @@;8@@@# #$X-O..#$ 8;5  8   6o 066<e.e<o<e<0%O",
"O%0<e<o<e.e<660 o6      588 $#..O-X+# #$@@ 8@$ $@ $@@4@@555@$+XXXX+$@555@@4@@$ @$ $@8 @@$# #+X-O..#$ 885      6o 066<e.e<o<e<0%O",
"3%0<e<o<eXe<666 o6      5;  $#..O=X+# #$@@ 8@$#$@ $@@4@@54@@$+XXXX+$@@45@@4@@$ @$#$@8 @@$# #+X=O..#$  ;5      6o 666<eXe<o<e<0%3",
"3%0<<<o<...<066  6      5;  +#..O=X+# #+@@  @$#$@ $@$5@@54@$++XXXX++$@45@@5$@$ @$#$@  @@+# #+X=O..#+  ;5      6  660<...<o<<<0%3",
"3%0<<<o<...<666  6      @;  +#..O=X+# #$@@  @$#$@ $@$@@$@5@$++XXXX++$@5@$@@$@$ @$#$@  @@$# #+X=O..#+  ;@      6  666<...<o<<<0%3",
"3%0<<<o<...<6<6  6      @8  +#..OOX+###$@$  @$#+$ $@$@@$@5@$++XXXX++$@5@$@@$@$ $+#$@  $@$###+XOO..#+  8@      6  6<6<...<o<<<0%3",
"3%0<<<o<...<6<6  6#     @8  +#..O=X+# #+@$  @$#+@ $@$@@$@5@$++X--X++$@5@$@@$@$ @+#$@  $@+# #+X=O..#+  8@     #6  6<6<...<o<<<0%3",
"r%0<<9o<%.o<6<6  6#     @8  +#..,OX+# #+$$  @$#+@#$@$$@$$$@$++X==X++$@$$$@$$@$#@+#$@  $$+# #+XO,..#+  8@     #6  6<6<o.%<o9<<0%r",
"3%0<<&oe..o<6<6#  #     @8  +#..,=X*###+$$  @$++$#$@$@$++@@$++XOOX++$@@++$@$@$#$++$@  $$+###*X=,..#+  8@     #  #6<6<o..eo&<<0%3",
"3&9<.&.%..o<6<6#+### # #+@  +#.:,OX*###+$$  @$++@#$$+@$++@@$++XOOX++$@@++$@+$$#@++$@  $$+###*XO,:.#+  @+# # ###+#6<6<o..%.&.<9&3",
"3&9<.&.%..o<6<6#$### # #+@  +#.:,OXX###+$$  $++++#+$+$@$+@@$++XOOX++$@@+$@$+$+#++++$  $$+###XXO,:.#+  @+# # ###$#6<6<o..%.&.<9&3",
"3&9<t&.%..o<6<6#$##### #+$  +#.:,OXX###+$$  $+++++$@$$@$+$@$++XOOX++$@$+$@$$@$+++++$  $$+###XXO,:.#+  $+# #####$#6<6<o..%.&t<9&3",
"3&9<t&.%..o<6<6#+##### #+$ #+#.:>=XX###+$+  $+++++$@$$@$+$$+++XOOX+++$$+$@$$@$+++++$  +$+###XX=>:.#+# $+# #####+#6<6<o..%.&t<9&3",
"3&9<t&....o<6<6#+###+# #$@ #+#.:>OXX###+$+  $+++++$$$$@$$@$+++XOOX+++$@$$@$$$$+++++$  +$+###XXO>:.#+# @$# #+###+#6<6<o....&t<9&3",
"3&9<#&....o<6<6#+###+# #$@ #+#.:>OXX###+$+  $++++#$@$$@$$@$+++XOOX+++$@$$@$$@$#++++$  +$+###XXO>:.#+# @$# #+###+#6<6<o....&#<9&3",
"3&9<#&....o<6<6#$###+# #+$ #+#.:>OXX###$@+  $++++#+$+$@$+$$+++XOOX+++$$+$@$+$+#++++$  +@$###XXO>:.#+# $+# #+###$#6<6<o....&#<9&3",
"3&9<#&....o<6<6#+###+# #+$ #+#.:>OXX###$@+  $++++++++$@$+$@+++XOOX+++@$+$@$++++++++$  +@$###XXO>:.#+# $+# #+###+#6<6<o....&#<9&3",
"3&9<#&....o96<<#+###+o##+$ #+..:>OXX###$@+  $++++++++$@$+$$++X-OO-X++$$+$@$++++++++$  +@$###XXO>:..+# $+##o+###+#<<69o....&#<9&3",
"3&&<t&.%...96<<o+#oo*.o#+$ #+..:>O-X.##+++##+++++++++$$$+$$++X-OO-X++$$+$$$+++++++++##+++##.X-O>:..+# $+#o.*oo#+o<<69...%.&t<&&3",
"j3&r.&.%...&&9r.X...-...-X..-::1>>OO...XXX..XX-X*X**XX**-XXX-OO>>OO-XXX-**XX**X*X-XX..XXX...OO>>1::-..X-...-...X.r9&&...%.&.r&3j",
"jB337M77::%3&33:O:::,777,,77O:111>>>:::O-O..OO=O=OO-OO=-,,,,OO>>>>OO,,,,-=OO-OO=O=OO..O-O:::>>>111:O77,,777,:::O:33&3%::77M733Bj",
"jBBBByByBB1yyyy1>1k11kkk11kk>1ki11>1111,O>::,>O>O>>>,,,O1111>>1kk1>>1111O,,,>>>O>O>,::>O,1111>11ik1>kk11kkk11k1>1yyyy1BByByBBBBj",
"jnyFFnFjiFFnnHnikiikkiFFiiFFkiii11i1iiiikkiiikikkk1kkiiiiiiikkkkkkkkiiiiiiikk1kkkikiiikkiiii1i11iiikFFiiFFikkiikinHnnFFijFnFFynj",
"jyyBByByB>%yy33:1kkikkkikkkk1kkk>>>>>>>>>>>>>>>>,>>>>>,,>>>>111>>111>>>>,,>>>>>,>>>>>>>>>>>>>>>>kkk1kkkkikkkikk1:33yy%>ByByBByyj",
"&&&&&&&%...99999OOOOO>OOOOOOOOOOOOOOO>>>>>>O>OOO=O>O>>==OOOO,>>>>>>,OOOO==>>O>O=OOO>O>>>>>>OOOOOOOOOOOOOOO>OOOOO99999...%&&&&&&&",
"6.<<<%.%..t0owwoXXXXX=XXXXXooooooooo   #    88   ##### #  XXXXX==XXXXX  # #####   88    #   oooooooooXXXXX=XXXXXowwo0t..%.%<<<.6",
"000009.%%eNllNN# 888 888  88#  A    ##      8      o$$$$@@****XXXX****@@$$$$o      8      ##    A  #88  888 888 #NNllNe%%.900000",
"<.99.&.%%%.66wwo*###+#  ++##+#o.++++##oo+# $@@$+ ++o++$+$@$$++****++$$@$+$++o++ +$@@$ #+oo##++++.o#+##++  #+###*oww66.%%%.&.99.<",
"r&&&%&%7%%.&&<<.Xo#o+#  +*#.*oo.****o#oo+# $$$$$ +*o*+$+$@++++*XX*++++@$+$+*o*+ $$$$$ #+oo#o****.oo*.#*+  #+o#oX.<<&&.%%7%&%&&&r",
"r&&&%%:%.%.&&9r.Xooo+#  +X#.Xoo.*XXXo#oo+# $@$$+ *XoX+$+$@+X***XX***X+@$+$+XoX* +$$@$ #+oo#oXXX*.ooX.#X+  #+oooX.r9&&.%.%:%%&&&r",
"r&&&%%77.%.&&9r.X.o.+## **#oX.o.XXXXo#oo*# $@$+$ XXoX+$+$$+XX**XX**XX+$$+$+XoXX $+$@$ #*oo#oXXXX.o.Xo#** ##+.o.X.r9&&.%.77%%&&&r",
"r&&&%777%:.&&9r.X.o.+#  *XooX.o.XXXXoo#o*# +@$+$#X*o*+++$$**XX*XX*XX**$$+++*o*X#$+$@+ #*o#ooXXXX.o.XooX*  #+.o.X.r9&&.:%777%&&&r",
"r&&&%777%:.&&9r.X.o.+o #*Xo.Xo..XX-X#o##*# +@$$+#X*o**X+$$*XX*XXXX*XX*$$+X**o*X#+$$@+ #*##o#X-XX..oX.oX*# o+.o.X.r9&&.:%777%&&&r",
"r&&&:777%:.&&9r.-.o.-ooo--o.-o.%====....=..=====.=========-==-=OO=-==-=========.=====..=....====%.o-.o--ooo-.o.-.r9&&.:%777:&&&r",
"&9&&%773::%MMMOOO%%%O%%%OO%%O%%%OOO,,,,,,,OOOOOO=OOOOO===OOOOOOOOOOOOOO===OOOOO=OOOOOO,,,,,,,OOO%%%O%%OO%%%O%%%OOOMMM%::377%&&9&",
":7::77:7:::7:77:::::::%%11111717>>,p:%:ppp:ppppppppppppO,>>>>>>>>>>>>>>,Opppppppppppp:ppp:%:p,>>71711111%%:::::::77:7:::7:77::7:",
"%7%%77:7:.:7%77.::.%%%tt-=-==%=%=OOO%.%OOO:OOOOOOOOOOOOOOOOO,,OOOO,,OOOOOOOOOOOOOOOOO:OOO%.%OOO=%=%==-=-tt%%%.::.77%7:.:7:77%%7%",
"r&r0<<C<%e%<<&&tt9to#.# +++XX.X.X=-Xo#o++*.*X**XX*++*+*XX===OO====OO===XX*+*++*XX**X*.*++o#oX-=X.X.XX+++ #.#ot9tt&&<<%e%<C<<0r&r",
"r%0h66fwcocww0w;c08;qq;q2442@#X.XXXX#8;422 2@224422242442442@+XXXX+@244244242224422@2 224;8#XXXX.X#@2442q;qq;80c;w0wwcocwf66h0%r",
"re0hwaumfufaaaadfauuuuxxxxvs28+.XX++ ;guuuuuuuxddvvvSSSvvvvs25+XX+52svvvvSSSvvvddxuuuuuuug; ++XX.+82svxxxxuuuuafdaaaafufmuawh0er",
"r#0NaaumfxfaamNgfadxxxduuVdxs;+.XX@@ quxxxxxxxbxxbxbDDDvVVSvs4+XX+4svSVVvDDDbxbxxbxxxxxxxuq @@XX.+;sxdVuudxxxdafgNmaafxfmuaaN0#r",
"r#hmlhfwcqcww0w;Cwcqq;g;q24gd;X.XX@@;ug2ssuss2u22222ss22224zS4X--X4Sz42222ss22222u2ssuss2gu;@@XX.X;dg42q;g;qqcwC;w0wwcqcwfhlmh#r",
"rehl6<C6  e6<<6 e6o   8  @$ 2 -.XX++;; 544;444q455554245@@$@2@----@2@$@@542455554q444;445 ;;++XX.- 2 $@  8   o6e 6<<6e  6C<6lher",
"r%0w6<e6  e6<<< e6o   8  @$ +#-%X-XX## @54;54@;@@@@@424@@@$@++-==-++@$@@@424@@@@@;@45;45@ ##XX-X%-#+ $@  8   o6e <<<6e  6e<6w0%r",
"3%90&&%9..%99&&t%9t#o. .#XX.X.=%-O-=.#oX*+oXX*oXX*X*+++X+XXXXX====XXXXX+X+++*X*XXo*XXo+*Xo#.=-O-%=.X.XX#. .o#t9%t&&99%..9%&&09%3",
"j3&&33:3%::3MyM7Z3:%:7%:%O,:O:,%->OO:%:OO=%OO=:OO=O=-X-O=O,OOO,==,OOO,O=O-X-=O=OO:=OO%=OO:%:OO>-%,:O:,O%:%7:%:3Z7MyM3::%3:33&&3j",
"jBnnBBBB111yyyB>ByM71kk17>>7,1>%->>>171>>,7>>,1>>,>>,O,,,>>,,>>==>>,,>>,,,O,>>,>>1,>>7,>>171>>>-%>1,7>>71kk17MyB>Byyy111BBBBnnBj",
"3ByyyyBB111yyyy>ByB11kk11>11>1O.-O>>111>>>1>>>1>>>>>>>>>>>1>>>OXXO>>>1>>>>>>>>>>>1>>>1>>>111>>O-.O1>11>11kk11ByB>yyyy111BByyyyB3",
"r3&&33:3%%%33yBOZyZ:Z:.%:==:O:-.O-O-:::OOO:OOO:OOOOOO=OOO==OOO-XX-OOO==OOO=OOOOOO:OOO:OOO:::-O-O.-:O:==:%.:Z:ZyZOBy33%%%3:33&&3r",
"r&r<99.&...&&3&X%&%.%. ..X*.-.-.-X--...-XX.XXX.XXXXXX*XX-X*----XX----*X-XX*XXXXXX.XXX.XX-...--X-.-.-.*X.. .%.%&%X&3&&...&.99<r&r",
"r&00wwowC o0w0l;c0c;c;;;;22;@#-.-XXX# q222q44@;42222zsz24224@+----+@42242zsz22224;@44q222q #XXX-.-#@;22;;;;c;c0c;l0w0o Cwoww00&r",
"r<0h8f8aC;fmmaaffadddxxxxduu2 #.OX++ qquxxxxxxxxxxxvvDDvvSVs2@+--+@2sVSvvDDvvxxxxxxxxxxxuqq ++XO.# 2uudxxxxdddaffaammf;Ca8f8h0<r",
"r6hwfgfac;fNaaaxgaxdddddxxxxu;#.O-@@ quxbxbbbxxxxxbbbDDvvvvvs4+--+4svvvvvDDbbbxxxxxbbbxbxuq @@-O.#;uxxxxdddddxagxaaaNf;cafgfwh6r",
"r6wl888wC cwwhhqcwgguuugzuqquq#.O-@@quq2s2uus2q2qq222ss2zs22s2+--+2s22sz2ss222qq2q2suu2s2quq@@-O.#quqquzguuuggwcqhhwwc Cw888lw6r",
"3eww#6#6o o6<60 o6  ;qg;4g;828#.O=++qq @4@;q4@ @@ @@@4244z4525+XX+5254z4424@@@ @@ @4q;@4@ qq++=O.#828;g4;gq;  6o 06<6o o6#6#wwe3",
"3e06#<o<e e6<60 o6   ;; 5q88@ #.O=++   @5@8;5@ @$ $@@5455255@@+XX+@@5525545@@$ $@ @5;8@5@   ++=O.# @88q5 ;;   6o 06<6e e<o<#60e3",
"r%0<e<o<e.e<660 o6   8  5;8 $#..O-XX# #@@@8;@@ $$ $@@@5@545@$+XXXX+$@545@5@@@$ $$ @@;8@@@# #XX-O..#$ 8;5  8   6o 066<e.e<o<e<0%r",
"r%0<e<o<e.e<660 o6      588 $#..O-XX# #$@@ 8@$ $@ $@@@55555@$+XXXX+$@55555@@@$ @$ $@8 @@$# #XX-O..#$ 885      6o 066<e.e<o<e<0%r",
"3%0<e<o<eXe<666 o6      5;  $#..O=XX# #$@@ 8@$#$@ $@@@5554@@$+XXXX+$@@4555@@@$ @$#$@8 @@$# #XX=O..#$  ;5      6o 666<eXe<o<e<0%3",
"3%0<<<o<...<066  6      5;  +#..O=XX# #+@@  @$#$@ $@@@5554@$++XXXX++$@4555@@@$ @$#$@  @@+# #XX=O..#+  ;5      6  660<...<o<<<0%3",
"3%0<<<o<...<666  6      @;  +#..O=XX# #$@@  @$#$@ $@@@5@@4@$++XXXX++$@4@@5@@@$ @$#$@  @@$# #XX=O..#+  ;@      6  666<...<o<<<0%3",
"3%0<<<o<...<6<6  6      @8  +#..O=XX###$@$  @$#+$ $@@@5@@5@$++XXXX++$@5@@5@@@$ $+#$@  $@$###XX=O..#+  8@      6  6<6<...<o<<<0%3",
"3%0<<<o<...<6<6  6#     @8  +#..O=XX# #+@$  @$#+@ $@$@55@5@$++XXXX++$@5@55@$@$ @+#$@  $@+# #XX=O..#+  8@     #6  6<6<...<o<<<0%3",
"3%0<<9o<%.o<6<6  6#     @8  +#..OOXX# #+$$  @$#+@#$@$@5@@5@$++XXXX++$@5@@5@$@$#@+#$@  $$+# #XXOO..#+  8@     #6  6<6<o.%<o9<<0%3",
"3%0<<&oe..o<6<6#  #     @8  +#..O=XX###+$$  @$++$#$@$@5@@5@$++X--X++$@5@@5@$@$#$++$@  $$+###XX=O..#+  8@     #  #6<6<o..eo&<<0%3",
"3%0<<9oe..o<6<6#  #     @   +#..,=XX###+$$  @$++@#$@$@@@@@@$++X--X++$@@@@@@$@$#@++$@  $$+###XX=,..#+   @     #  #6<6<o..eo9<<0%3",
"3%0<<9oe%.o66<6#  #     @   +#..,OXX###+$$  @$++$#$@$@5@@@@$++X--X++$@@@@5@$@$#$++$@  $$+###XXO,..#+   @     #  #6<66o.%eo9<<0%3",
"3%0<9&oe%.o66<6# 6#     $   +#..OOXX###+$$  $$++$#$@$@@@$@@$++X--X++$@@$@@@$@$#$++$$  $$+###XXOO..#+   $     #6 #6<66o.%eo&9<0%3",
"3%<<9&oe%.o66<6# 6#     $   +#..O=XX###+$+  $+++$#$@+@@@$@@$++X--X++$@@$@@@+@$#$+++$  +$+###XX=O..#+   $     #6 #6<66o.%eo&9<<%3",
"3%<<99oe..o66<6# 6#     $   +#.%,=XX###+$+  $+++@#$@+$@@$$@$++X==X++$@$$@@$+@$#@+++$  +$+###XX=,%.#+   $     #6 #6<66o..eo99<<%3",
"3%<<.&oe..o66<6#$<#     $   +#.%,OXX###+$$  $+++$#$$+$@@$$@$++X==X++$@$$@@$+$$#$+++$  $$+###XXO,%.#+   $     #<$#6<66o..eo&.<<%3",
"3%<<.&oe..o6 <6#$<#     +   +#.%,=XX###+$+  $+++$#+$+$@@+$@$++X==X++$@$+@@$+$+#$+++$  +$+###XX=,%.#+   +     #<$#6< 6o..eo&.<<%3",
"3&<<.&o...o6 <6#$##     +   +#.%O=XX###+$+  $+++$#+$+$@@+$@$++X==X++$@$+@@$+$+#$+++$  +$+###XX=O%.#+   +     ##$#6< 6o...o&.<<&3",
"3&<<.&o...o6o<6#$##     +   +#.%O=XX###+$+  $$++$#$@$$@$+$@$++X==X++$@$+$@$$@$#$++$$  +$+###XX=O%.#+   +     ##$#6<o6o...o&.<<&3",
"3&<<.&t...o6o<6#$##     +   +#.%O=XX###+$+  $++++#$@$$@$+@@$++X==X++$@@+$@$$@$#++++$  +$+###XX=O%.#+   +     ##$#6<o6o...t&.<<&3",
"r&<<.&t%..o9 <6#$##  #  +@  +#.%O-XX###+$+  $$+++#+$+$@$+@@$++X==X++$@@+$@$+$+#+++$$  +$+###XX-O%.#+  @+  #  ##$#6< 9o..%t&.<<&r",
"3&<<.&t%..o9o<6#+###   #+@  +#.:,=XX###+$+  $+++$#+$+$@$+@@$++XOOX++$@@+$@$+$+#$+++$  +$+###XX=,:.#+  @+#   ###+#6<o9o..%t&.<<&3",
"3&9<.&.%..o<o<6#+### # #+@  +#.:,OXX###+$+  $+++$#+++$@$+@@$++XOOX++$@@+$@$+++#$+++$  +$+###XXO,:.#+  @+# # ###+#6<o<o..%.&.<9&3",
"3&9<.&.%..o<o<6#$### # #+@  +#.:,OXX###+$$  $++++#+$+$@$+@@$++XOOX++$@@+$@$+$+#++++$  $$+###XXO,:.#+  @+# # ###$#6<o<o..%.&.<9&3",
"3&9<t&.%..o<o<6#$##### #+$  +#.:,OXX###+$$  $+++++$@$$@$+$@$++XOOX++$@$+$@$$@$+++++$  $$+###XXO,:.#+  $+# #####$#6<o<o..%.&t<9&3",
"3&9<t&.%..o< <6#+##### #+$ #+#.:>=XX###+$+  $+++++$@$$@$+$$+++XOOX+++$$+$@$$@$+++++$  +$+###XX=>:.#+# $+# #####+#6< <o..%.&t<9&3",
"3&9<t&....o< <6#+###+# #$@ #+#.:>OXX###+$+  $+++++$$$$@$$@$+++XOOX+++$@$$@$$$$+++++$  +$+###XXO>:.#+# @$# #+###+#6< <o....&t<9&3",
"3&9<#&....o<o<6#+###+# #$@ #+#.:>OXX###+$+  $++++#$@$$@$$@$+++XOOX+++$@$$@$$@$#++++$  +$+###XXO>:.#+# @$# #+###+#6<o<o....&#<9&3",
"3&9<#&....o<.<6#$###+# #+$ #+#.:>OXX###$@+  $++++#+$+$@$+$$+++XOOX+++$$+$@$+$+#++++$  +@$###XXO>:.#+# $+# #+###$#6<.<o....&#<9&3",
"3&9<#&....o<o<6#+###+# #+$ #+#.:>OXX###$@+  $++++++++$@$+$@+++XOOX+++@$+$@$++++++++$  +@$###XXO>:.#+# $+# #+###+#6<o<o....&#<9&3",
"3&9<#&....o9.<<#+###+o##+$ #+..:>OXX###$@+  $++++++++$@$+$$++X-OO-X++$$+$@$++++++++$  +@$###XXO>:..+# $+##o+###+#<<.9o....&#<9&3",
"3&&<t&.%...9.<<o+#oo*.o#+$ #+..:>O-X.##+++##+++++++++$$$+$$++X-OO-X++$$+$$$+++++++++##+++##.X-O>:..+# $+#o.*oo#+o<<.9...%.&t<&&3",
"j3&r.&.%...&.9r.X...-...-X..-::1>>OO...XXX..XX-X*X**XX**-XXX-OO>>OO-XXX-**XX**X*X-XX..XXX...OO>>1::-..X-...-...X.r9.&...%.&.r&3j",
"jB337M77::%3%33:O:::,777,,77O:111>>>:::O-O..OO=O=OO-OO=-,,,,OO>>>>OO,,,,-=OO-OO=O=OO..O-O:::>>>111:O77,,777,:::O:33%3%::77M733Bj",
"jBBBByByBB1y1yy1>1k11kkk11kk>1ki11>1111,O>::,>O>O>>>,,,O1111>>1kk1>>1111O,,,>>>O>O>,::>O,1111>11ik1>kk11kkk11k1>1yy1y1BByByBBBBj",
"jnyFFnFjiFFniHnikiikkiFFiiFFkiii11>1iiFiikiFkkiikkiiiiiiiiiikkkkkkkkiiiiiiiiiikkiikkFikiiFii1>11iiikFFiiFFikkiikinHinFFijFnFFynj",
"jyyBByByB>1y1jjk1kkikkkikkkk1kkk11>>1iikk1ki11kk1111kkkkkk111111111111kkkkkk1111kk11ik1kkii1>>11kkk1kkkkikkkikk1kjj1y1>ByByBByyj",
"jBBBBBBB>>1y1yy1>111>111>>111kk1>>>>111,,>17,>>>>>>>>>,,>>>>111>>111>>>>,,>>>>>>>>>,71>,,111>>>>1kk111>>111>111>1yy1y1>>BBBBBBBj",
"333:>BBB>>%y%33:O::1O1::OO::,111OOOO:::OOO::OOO,,,OOOO==OOOO,>>>>>>,OOOO==OOOO,,,OOO::OOO:::OOOO111,::OO::1O1::O:33%y%>>BBB>:333",
"&%&..&.%...9.99AAooA....XX..X.%%XXXX...XXX..XXXXXXXXXXXXXXXXXX====XXXXXXXXXXXXXXXXXX..XXX...XXXX%%.X..XX....AooAA99.9...%.&..&%&",
"6..tt%.%..t0owwoo   o   oo  *ooo$+*  #    88   ##### #  ****************  # #####   88    #  *+$ooo*  oo   o   oowwo0t..%.%tt..6",
"6eeoo9.%%eNl NN# 888 888  88#  A++*#      8      $$$$$@@$$$$++*XX*++$$$$@@$$$$$      8      #*++A  #88  888 888 #NN lNe%%.9ooee6",
"<..t.&.%%%.wowwo*###+#  ++##+#o.***#+#+# $@@$+ ++*++$+$@++++++*XX*++++++@$+$++*++ +$@@$ #+#+#***.o#+##++  #+###*owwow.%%%.&.t..<",
"r&%.%&%7%%.&.<<.Xo#o+#  +*#.*oo.*XX#o.+# $$$$$ +*X*+$+$@+*+X***XX***X+*+@$+$+*X*+ $$$$$ #+.o#XX*.oo*.#*+  #+o#oX.<<.&.%%7%&%.%&r",
"r&%.%%:%.%.&.<r.Xooo+#  +X#.Xoo.XXX#oo+# $@$$+ *XXX+$+$@+X+XX**XX**XX+X+@$+$+XXX* +$$@$ #+oo#XXX.ooX.#X+  #+oooX.r<.&.%.%:%%.%&r",
"r&%.%%77.%.&.<r.X.o.+## **#oX.o.XXX#o.*# $@$+$ XXXX+$+$$**+*XX*XX*XX*+**$$+$+XXXX $+$@$ #*.o#XXX.o.Xo#** ##+.o.X.r<.&.%.77%%.%&r",
"r&%.%777%:.&.<r.X.o.+#  *XooX.o.XXXo#o*# +@$+$#X*X*+++$$*X**XX*XX*XX**X*$$+++*X*X#$+$@+ #*o#oXXX.o.XooX*  #+.o.X.r<.&.:%777%.%&r",
"r&%.%777%:.&.9r.X.o.+o #*Xo.Xo..XX-o##*# +@$$+#X*X**X+$$*X*XX*XXXX*XX*X*$$+X**X*X#+$$@+ #*##o-XX..oX.oX*# o+.o.X.r9.&.:%777%.%&r",
"r&%.:777%:.&.9r.X.o.+o #*Xo.Xo.%XXXo#o*# +$$$+oXXX***+$+*X*XX*X==X*XX*X*+$+***XXXo+$$$+ #*o#oXXX%.oX.oX*# o+.o.X.r9.&.:%777:.%&r",
"&9&.%773::%&.<r.X.#.+.  *X..X...*XXo#.*# +$+$+oX*XX*X++$*XXXX-XXXX-XXXX*$++X*XX*Xo+$+$+ #*.#oXX*...X..X*  .+.#.X.r<.&%::377%.&9&",
"&&&.77Z3::.&.<r.X..o+. #**..-...X--o#.+# +$+$+oXXX***+$$XX--=-=--=-=--XX$$+***XXXo+$+$+ #+.#o--X...-..**# .+o..X.r<.&.::3Z77.&&&",
"33333ZZM7:%3%%&%=%%.-%..-=%%=:::=Op%%%-..====O:OOOO====--====OOOOOO====--====OOOO:O====..-%%%pO=:::=%%=-..%-.%%=%&%%3%:7MZZ33333"
};
