/* XPM */
static char *result[] = {
/* columns rows colors chars-per-pixel */
"128 128 44 1 ",
"  c #3F2F17",
". c #2F6323",
"X c #27531B",
"o c #37732B",
"O c #1F4317",
"+ c #3F832F",
"@ c #439337",
"# c #17330F",
"$ c #4B9F3F",
"% c #53AF47",
"& c #5BBF4F",
"* c #2F2F2F",
"= c #5FCF57",
"- c #332B13",
"; c #4B371B",
": c #533F1F",
"> c #2B230F",
", c #43331B",
"< c #5B472B",
"1 c #4F3B23",
"2 c #5F4323",
"3 c #373F27",
"4 c #533F2F",
"5 c #5F4B37",
"6 c #574333",
"7 c #67533F",
"8 c #474F33",
"9 c #6F5743",
"0 c #676B4F",
"q c #6F6F6F",
"w c #53573B",
"e c #5B6347",
"r c #3F472B",
"t c #272727",
"y c #775F4B",
"u c #6B4727",
"i c #232323",
"p c #836B57",
"a c #7B634F",
"s c #6F7357",
"d c #1F170B",
"f c #675333",
"g c #777777",
"h c #774F2B",
/* pixels */
" ;     ;  ;-   ----2;;-: :-; -    >;   -->: -   ;- -    ;  :;-  ;- -    ;  :;-   ;     ;  ;-   ----2;4,<085w58;   >;   -->: -   ",
";>:; ;>> ; - - - :  -: -;   - :-  -   - ;-;-    ;-; : ;;2-:: 2  ;-; : ;;2-:: 2  ;>:; ;>> ; - - - :  117<yqeea6;-  -   - ;-;-    ",
";>;-:        -  -;     >    -   ;  -:-  :;  -;; ;:;;;-:: ;-:;;:;;:;;;-:: ;-:;;:;;>;-:        -  -;  45w40qyfa6, ;  -:-  :;  -;; ",
":;-; ;:;   ; ;; ;-: -;:-;--; -  :        :  ;:; 22;2  :  2:; : ;22;2  :  2:; : ;:;-; ;:;   ; ;; ;-: 6we<0q7778, :        :  ;:; ",
" 12 ;;;;;2; 2 : - :;-;;;   : -  ;-;-; ; ;;>  :- :;-:;    ; :;: ::;-:;    ; :;: : 12 ;;;;;2; 2 : - :;<9f1pq07y8, ;-;-; ; ;;>  :- ",
"  >  ;-;;:;;: : ; :; ; ;-; :; -; :  ;-; - >   :;;;-;;;;:-;3: -;;;;-;;;;:-;3: -;;  >  ;-;;:;;: : ; :;;885pg9,94,; :  ;-; - >   :;",
"--  ; 2 ;;   : >; ;:; -  ;  :; ;   2 ;; --     ;       -: 1; :-        -: 1; :- --  ; 2 ;;   : >; ;:;588sgy-8;,;   2 ;; --     ;",
" -: ; -;-:;     ;:- ;:- -;     ;-; 2: ;  --2      ; ;  ::  ; - ;  ; ;  ::  ; - ; -: ; -;-:;     ;:- ;575pq5,e1,;-; 2: ;  --2    ",
" ;;;  ;2;:  ;  ;:  ;-; ;-; -;-: ; ;   ;- - ;-;   ;  ;;;2;-;; -;  ;  ;;;2;-;; -;  ;;;  ;2;:  ;  ;:  ;,<7<sq74<1, ; ;   ;- - ;-;  ",
"  ;  : ;;;   ;-- -; -;: -   ; ; ;--     -  ; :  :  ;:;-; ;   ;  :  ;:;-; ;   ;    ;  : ;;;   ;-- -; ,,5<aq9<< , ;--     -  ; :  ",
" :   ;-;- ;   ;  -2 - ;;;  ;;   ; ;  ;       ;-;;    ;   ; ;  -;;    ;   ; ;  -; :   ;-;- ;   ;  -2 ,,<7sqe5<   ; ;  ;       ;-;",
";   2      ; ;- ;  :;      -;;- ;-     ;- ;; --  ;;   ; :: ;     ;;   ; :: ;    ;   2      ; ;- ;  :;,<<0719<;  ;-     ;- ;; -- ",
";  : - ; ;  2  ;2  :; --   ;;  -:- ; :     ; ;-  ;   :; ;;;: ; ; ;   :; ;;;: ; ;;  : - ; ;  2  ;2  :;<4<09<84  -:- ; :     ; ;- ",
":  : ;  ;;; ::-;;;-;  :  ;   -    ;   2; :    ;- :: ;;; ; -:-;   :: ;;; ; -:-;  :  : ;  ;;; ::-;;;-; -;1y54w6-    ;   2; :    ;-",
";  ;   ;  2;  :     ; ;  ; -      2        : ;;;-:;  ;  -    ;-;-:;  ;  -    ;-;;  ;   ;  2;  :     ;4,40e<<4     2        : ;;;",
"-      ; -2;  ;; -  ;;-    ;::  - 2:      -  ; ;  ; ;   - ; 2;    ; ;   - ; 2;  -      ; -2;  ;; -  ;,,,9e<,4:, - 2:      -  ; ;",
"> - ;--; ;    ;           ;;-:; - ;;- ;-   ;;;;    :-  ; ;  :  ;   :-  ; ;  :  ;> - ;--; ;    ;      6;-90w84:, - ;;- ;-   ;;;; ",
"   ;    ;  ;; ;         -       -;-:  ;;      ;   ;  ;-;;;: 2 ;-  ;  ;-;;;: 2 ;-   ;    ;  ;; ;      11,<7154   -;-:  ;;      ; ",
": ;       :u;-;   ; :     2-2-  ;   ;      :  - ;;:;   ;2 :    ;;;:;   ;2 :    ;: ;       :u;-;   ; :,1<<7ww4-  ;   ;      :  - ",
"  :  ;;  ;;     2   -;  :;   ;      : :: - :--  ;  ;;  ;; : : ;:;  ;;  ;; : : ;:  :  ;;  ;;     2   -,;,5911:;      : :: - :--  ",
"- ;; -:  : ;:  ;; :-    ; ;- : -  -   u --   >  ; :2-: ;;-u-u -2; :2-: ;;-u-u -2- ;; -:  : ;:  ;; :- ,,;66-<:: -  -   u --   >  ",
"- -   ;  ; ; :2    -  :    --  ; -; ; :; - 1;-;   ;   -; ;;-2 -   ;   -; ;;-2 - - -   ;  ; ; :2    - ,,;66-<1  ; -; ; :; - 1;-; ",
"-;;--;        ;        3--    -;- ; ;-h--  r -;-;-:: - ;;-:-2 - ;-:: - ;;-:-2 - -;;--;        ;      -,,,6,<; -;- ; ;-h--  r -;-",
" ; ;-;--;  ;-;;           - -    -   ;; , -1 ;   -:2     ;  ;; - -:2     ;  ;; - ; ;-;--;  ;-;;      ,,;4r4;,    -   ;; , -1 ;  ",
" :;   - >; ;; ; -      3>   --  - ;;-;     1 >    ;  4; :   ;;-   ;  4; :   ;;-  :;   - >; ;; ; -    -;;-611,-  - ;;-;     1 >  ",
"-; -  3 --  -2 -   - -: -   ->2-- -3  :   ;;; --  ; :r >u:  2     ; :r >u:  2   -; -  3 --  -2 -   - -;;<564,>2-- -3  :   ;;; --",
"-  ---  > ;  ;  -       -- : - -      :  -:-    ; ; ;1 22- ;;   ; ; ;1 22- ;;   -  ---  > ;  ;  -    ,,;,564,- -      :  -:-    ",
"       -   -2- ; -  - ;;  ;;> ; -     ;   ;->:-    ; 1 ; - ; ;     ; 1 ; - ; ;         -   -2- ; -  -,,;,564, ; -     ;   ;->:- ",
" ,  ;   - - ;   --     - 3-; ;;-   ;  ;:   - ;--    ;- : - ;;       ;- : - ;;    ,  ;   - - ;   --     , 61;,;;-   ;  ;:   - ;--",
">   --;  -;-; -:   ;       ;-   -    -    > ;  ;     - ;-;  :;--     - ;-;  :;-->   --;  -;-; -:   ;     4;,    -    -    > ;  ;",
" ;    ;  -;-:  :        -;   -  -  ; -;-- -  --      3 :>;  ; -      3 :>;  ; -  ;    ;  -;-:  :        -6,,    -  ; -;-- -  -- ",
" 3 ;  ,   -  ;  - - - ,3>  -  3       ;  ;-; - --;   r        ; -;   r        ;  3 ;  ,   -  ;  - - - ,,>6,,  3       ;  ;-; - -",
"-;;  -  ;    ; -  -   -1- -   -; --   ; ;- ;  >- ;; -   -  ;;    ;; -   -  ;;   -;;  -  ;    ; -  -   -1-6,,  -;  >;   -->: -   ",
" ;     ;  ;-   ----2;;-: :-; -    >;   -->: -   ;- -    ;  :;-  ;- -    ;  :;-   ;     ;  ;-   - -    >: r, ;--:  -   - ;-;-    ",
";>:; ;>> ; - - - :  -: -;   - :-  -   - ;-;-    ;-; : ;;2-:: 2  ;-; : ;;2-:: 2  ;>:; ;>> ; - - ---    - >,,- -  ;  -:-  :;  -;; ",
";>;-:        -  -;     >    -   ;  -:-  :;  -;; ;:;;;-:: ;-:;;:;;:;;;-:: ;-:;;:;;>;-:        -  - ---  3>3, - -;:        :  ;:; ",
":;-; ;:;   ; ;; ;-: -;:-;--; -  :        :  ;:; 22;2  :  2:; : ;22;2  :  2:; : ;:;-; ;:;   ; ;; > -    --,,   --;-;-; ; ;;>  :- ",
" 12 ;;;;;2; 2 : - :;-;;;   : -  ;-;-; ; ;;>  :- :;-:;    ; :;: ::;-:;    ; :;: : 12 ;;;;;2; 2 : - - >-  >,, ---- :  ;-; - >   :;",
"  >  ;-;;:;;: : ; :; ; ;-; :; -; :  ;-; - >   :;;;-;;;;:-;3: -;;;;-;;;;:-;3: -;;  >  ;-;;:;;: :    -  -3-4         2 ;; --     ;",
"--  ; 2 ;;   : >; ;:; -  ;  :; ;   2 ;; --     ;       -: 1; :-        -: 1; :- --  ; 2 ;;   : >- -  ;> >,  -;---; 2: ;  --2    ",
" -: ; -;-:;     ;:- ;:- -;     ;-; 2: ;  --2      ; ;  ::  ; - ;  ; ;  ::  ; - ; -: ; -;-:;     - -;---->4-;>- -; ;   ;- - ;-;  ",
" ;;;  ;2;:  ;  ;:  ;-; ;-; -;-: ; ;   ;- - ;-;   ;  ;;;2;-;; -;  ;  ;;;2;-;; -;  ;;;  ;2;:  ;  ; --    - ,  --;-;--     -  ; :  ",
"  ;  : ;;;   ;-- -; -;: -   ; ; ;--     -  ; :  :  ;:;-; ;   ;  :  ;:;-; ;   ;    ;  : ;;;   ;--       - , ; -:-; ;  ;       ;-;",
" :   ;-;- ;   ;  -2 - ;;;  ;;   ; ;  ;       ;-;;    ;   ; ;  -;;    ;   ; ;  -; :   ;-;- ;   ;  -    -3 , -- - ;-     ;- ;; -- ",
";   2      ; ;- ;  :;      -;;- ;-     ;- ;; --  ;;   ; :: ;     ;;   ; :: ;    ;   2      ; ;-  -     ; - ;--- :- ; :     ; ;- ",
";  : - ; ;  2  ;2  :; --   ;;  -:- ; :     ; ;-  ;   :; ;;;: ; ; ;   :; ;;;: ; ;;  : - ; ;  2  ;   -  -  ;->  --  ;   2; :    ;-",
":  : ;  ;;; ::-;;;-;  :  ;   -    ;   2; :    ;- :: ;;; ; -:-;   :: ;;; ; -:-;  :  : ;  ;;; ::-;-    -- -   -- -  2        : ;;;",
";  ;   ;  2;  :     ; ;  ; -      2        : ;;;-:;  ;  -    ;-;-:;  ;  -    ;-;;  ;   ;  2;  :  --- -3  -> --;;- 2:      -  ; ;",
"-      ; -2;  ;; -  ;;-    ;::  - 2:      -  ; ;  ; ;   - ; 2;    ; ;   - ; 2;  -      ; -2;  ;;    - : ; --> ; - ;;- ;-   ;;;; ",
"> - ;--; ;    ;           ;;-:; - ;;- ;-   ;;;;    :-  ; ;  :  ;   :-  ; ;  :  ;> - ;--; ;    ;  ; -  3- ;  -;  -;-:  ;;      ; ",
"   ;    ;  ;; ;         -       -;-:  ;;      ;   ;  ;-;;;: 2 ;-  ;  ;-;;;: 2 ;-   ;    ;  ;; ;   -- -1-   >--; ;   ;      :  - ",
": ;       :u;-;   ; :     2-2-  ;   ;      :  - ;;:;   ;2 :    ;;;:;   ;2 :    ;: ;       :u;-;  -    3> --- - >    : :: - :--  ",
"  :  ;;  ;;     2   -;  :;   ;      : :: - :--  ;  ;;  ;; : : ;:;  ;;  ;; : : ;:  :  ;;  ;;      >    -  - -  --  -   u --   >  ",
"- ;; -:  : ;:  ;; :-    ; ;- : -  -   u --   >  ; :2-: ;;-u-u -2; :2-: ;;-u-u -2- ;; -:  : ;:  ;  --- ->   -- -- -; ; :; - 1;-; ",
"- -   ;  ; ; :2    -  :    --  ; -; ; :; - 1;-;   ;   -; ;;-2 -   ;   -; ;;-2 - - -   ;  ; ; :2 - --    >  - ; ;- ; ;-h--  r -;-",
"-;;--;        ;        3--    -;- ; ;-h--  r -;-;-:: - ;;-:-2 - ;-:: - ;;-:-2 - -;;--;        ;    -  ---  >;;-  -   ;; , -1 ;  ",
" ; ;-;--;  ;-;;           - -    -   ;; , -1 ;   -:2     ;  ;; - -:2     ;  ;; - ; ;-;--;  ;-;;  - --  > - > ; -- ;;-;     1 >  ",
" :;   - >; ;; ; -      3>   --  - ;;-;     1 >    ;  4; :   ;;-   ;  4; :   ;;-  :;   - >; ;; ;  - -   >   --  -- -3  :   ;;; --",
"-; -  3 --  -2 -   - -: -   ->2-- -3  :   ;;; --  ; :r >u:  2     ; :r >u:  2   -; -  3 --  -2 -   -  ;- -- -:        :  -:-    ",
"-  ---  > ;  ;  -       -- : - -      :  -:-    ; ; ;1 22- ;;   ; ; ;1 22- ;;   -  ---  > ;  ;   -  -- -  - >- --     ;   ;->:- ",
"       -   -2- ; -  - ;;  ;;> ; -     ;   ;->:-    ; 1 ; - ; ;     ; 1 ; - ; ;         -   -2- ;-; -    >: >-- -   ;  ;:   - ;--",
" ,  ;   - - ;   --     - 3-; ;;-   ;  ;:   - ;--    ;- : - ;;       ;- : - ;;    ,  ;   - - ;         , -------;-    -    > ;  ;",
">   --;  -;-; -:   ;       ;-   -    -    > ;  ;     - ;-;  :;--     - ;-;  :;-->   --;  -;-; -:  - ,-  -  ;-> --  ; -;-- -  -- ",
" ;    ;  -;-:  :        -;   -  -  ; -;-- -  --      3 :>;  ; -      3 :>;  ; -  ;    ;  -;-:  :    - ;--- -  ;>      ;  ;-; - -",
" 3 ;  ,   -  ;  - - - ,3>  -  3       ;  ;-; - --;   r        ; -;   r        ;  3 ;  ,   -  ;  - 3- --- ;>3>;   --   ; ;- ;  >-",
"-;;  -  ;    ; -  -   -1- -   -; --   ; ;- ;  >- ;; -   -  ;;    ;; -   -  ;;   -;;  -  ;    ; -- -3   -   i-  -;   ; - ->   - ;",
" ;; -    -;  -;  -    >: -  ;--:;   ; - ->   - ;   ;-    ;-  ; -   ;-    ;-  ; - ;; -    -;  -; -  ,-  -   - -  -;;- -:->- ; -- ",
";:    - >  --:- --    - > -- -  -;;- -:->- ; --   ;; :;;  ;- ;    ;; :;;  ;- ;  ;:    - >  --:- - -;-- - >-;- ;-   --      - ---",
"     -- --;--  -- ---  3>-  - -;   --      - --->;:   -: 3;     >;:   -: 3;          -- --;--  -  33  ;-  3;-  --- -;- -   ->  -",
"-  -; ; -- -- : > -    --     ---- -;- -   ->  --  -  --> ; ;   -  -  --> ; ;   -  -; ; -- -- : - >   -> -;--  >     -;--- --  ;",
"  ;  :  - ;-;-; - - >-  >   ----     -;--- --  ; ; -  ---        ; -  ---         ;  :  - ;-;-;  -3 ----;  - -> ->2>- ;   -    -",
" ;   2- -;  -3 -   -  -3-;      ->2>- ;   -    -      -;   -   ;      -;   -   ; ;   2- -;  -3 -rr 3     1       >  -    -;-----",
";- ; -; - ---;; - -  ;> >   -;-- >  -    -;----- -  - 3  -       -  - 3  -      ;- ; -; - ---;; --      -  - - ---      -  - - -",
"  : - ; -;-   ;-- -;---->;-;>- ---      -  - - -  - -  -  - ; --  - -  -  - ; --  : - ; -;-   ;--  >2 ---  - --1-  >2 ---  - --1",
"-; - -; - -;  -> --    -    --;--  >2 ---  - --1 ;;->:   - - ->: ;;->:   - - ->:-; - -; - -;  ->;->-1       -   ;->-1       -   ",
">    >-;- ;  ; ;       -   ; -:-;->-1       -   -;;-  ;>;-;;    -;;-  ;>;-;;    >    >-;- ;  ; ;;---;-; >-; > - ;---;-; >-; > - ",
"--     ;- -; :   -    -3   -- - ;---;-; >-; > -  ;   ;   -    -- ;   ;   -    ----     ;- -; :  >- -    > ; - -:>- -    > ; - -:",
"   --- ;> -;-:   -     ; - ;--- >- -    > ; - -: -; -  ;- ;1-  - -; -  ;- ;1-  -   --- ;> -;-:  - -; -;---- -- -- -; -;---- -- -",
"  -- - ;       :   -  -  ;->  --- -; -;---- -- --1; -   -;      -1; -   -;        -- - ;       :-; ;>-;  >; -;  -; ;>-;  >; -;  ",
"; -; ;- - -:  ;:-    -- -   -- --; ;>-;  >; -;      - - 3     --    - - 3     --; -; ;- - -:  ;: ;- -;  - <- ;   ;- -;  - <- ;  ",
"1-;  ; -;-; ;;   --- -3  -> --;; ;- -;  - <- ;  -   -1 - : ; - --   -1 - : ; - -1-;  ; -;-; ;;   --     >> ; ;>- --     >> ; ;>-",
"-u ;-  ; ; - -      - : ; --> ;  --     >> ; ;>- ;;-   - : ;-;-  ;;-   - : ;-;- -u ;-  ; ; - -    > -;   >-;   -  > -;   >-;   -",
" ;; --   ;       ; -  3- ;  -;    > -;   >-;   -   >   -- : ;-     >   -- : ;-   ;; --   ;      -;-  ; - >  -  >-;-  ; - >  -  >",
";-;;   >    ;  ;  -- -1-   >--; -;-  ; - >  -  > ;; t - -- : -   ;; t - -- : -  ;-;;   >    ;  ;;;- --  - - --  ;;- --  - - --  ",
"  ; - ;-;--- - ; -    3> --- - >;;- --  - - --  ; --     -;; -- ; --     -;; --   ; - ;-;--- - ;;  - -- >  - -  ;  - -- >  - -  ",
"- -- -  - -- >   >    -  - -  --;  - -- >  - -  >  -;    -     ->  -;    -     -- -- -  - -- >     -   ; ;-  -     -   ; ;-  -  ",
">  -;  --  -  ;>  --- ->   -- --   -   ; ;-  -    --,  : --    -  --,  : --    ->  -;  --  -  ;>>    -      ->: >    -      ->: ",
" -;>  --  :-3   - --    >  - ; ;>    -      ->: ;- >--   - - ;> ;- >--   - - ;>  -;>  --  :-3   >-   ;  > - - - >-   ;  > - - - ",
"  ---- - >;--  -   -  ---  >;;- >-   ;  > - - - >--  - -;   - >->--  - -;   - >-  ---- - >;--  --> -;   --     --> -;   --     -",
"       - - ;---  - --  > - > ; --> -;   --     -   >  --;    ;>-   >  --;    ;>-       - - ;--- ->- :-  d ; - --->- :-  d ; - --",
"  ----   -  > >- - -   >   --  -->- :-  d ; - --:- >-  >: --  > :- >-  >: --  >   ----   -  > >-->  -  - >:- ->-->  -  - >:- ->-",
"; >--- >;- -       -  ;- -- -:  ->  -  - >:- ->-:- -- - -- ;-  -:- -- - -- ;-  -; >--- >;- -    >-; >  -d--  -- >-; >  -d--  -- ",
"- -  - >;; -2 -; -  -- -  - >- ->-; >  -d--  --  ;;-- -;- ; ---> ;;-- -;- ; --->- -  - >;; -2 -;>-  -   > >; -  >-  -   > >; -  ",
"  - ;- -- -;  ---; -    >: >-- ->-  -   > >; -    - - - --:   --  - - - --:   --  - ;- -- -;  ----  >--       - --  >--       - ",
"-   ;  - - ;-;-;      , -------;--  >--       -    > -  d-  - ;>   > -  d-  - ;>-   ;  - - ;-;-;    -- -> -- -      -- -> -- -  ",
">-   -  3--  --   - ,-  -  ;-> -    -- -> -- -     -; - - - -      -; - - - -   >-   -  3--  --     ;--;--;- -;     ;--;--;- -; ",
"----     -- t;-;    - ;--- -  ;>    ;--;--;- -;  ---;>-- --  ;-- ---;>-- --  ;------     -- t;-; -;- ;;-t ;  -   -;- ;;-t ;  -  ",
" ---      -  -- - 3- --- ;>3>;   -;- ;;-t ;  -   - -   -- >  --- - -   -- >  --- ---      -  -- ;> ;-;  t;- -  -;> ;-;  t;- -  -",
"   >-  -;  -  --- -3   -   i-  -;> ;-;  t;- -  - -- --->     -i  -- --->     -i    >-  -;  -  -- > ;; - - > - >> > ;; - - > - >>",
"- ;-  --1 ;--3  -  ,-  -   - -   > ;; - - > - >>-  >--- - ;   - -  >--- - ;   - - ;-  --1 ;--3    -  -- --  -  >  -  -- --  -  >",
"-  >- ---> ;-   - -;-- - >-;- ;-  -  -- --  -  >--  -- ----  -----  -- ----  ----  >- ---> ;-   --     3;>---- ---     3;>---- -",
"-- - - -3   -  >  33  ;-  3;-  ---     3;>---- -- >>- --  -; 3 -- >>- --  -; 3 --- - - -3   -  >;>  --  3-; - >-;>  --  3-; - >-",
";   >>  -  -;3  - >   -> -;--  >;>  --  3-; - >-->>-3>-- -    i-->>-3>-- -    i-;   >>  -  -;3  -   - -  - -- ---   - -  - -- --",
"---  -      ; :  -3 ----;  - -> -   - -  - -- --;>--;;- ;-- - - ;>--;;- ;-- - - ---  -      ; :  >  - 3-  - > -- >  - 3-  - > --",
"  -- > ;1 ;    ;rr 3     1       >  - 3-  - > --  - -:- - 4 3-    - -:- - 4 3-    -- > ;1 ;    ;    - : ; --> ;  --     >> ; ;>-",
"   >   -- : ;-   ;; --   ;       ; -  3- ;  -;    > -;   >-;   -   >   -- : ;-   ;; --   ;       ; -  3- ;  -;    > -;   >-;   -",
" ,, i,- t-,1;-,,,-11,,;-;:;,:;,:,;,,;,4,,;,t--:,-;-  ; - >  -  > ,, i,- t-,1;-,,,-11,,;-;:;,:;,:,;,,;,4,,;,t--:,-;-  ; - >  -  >",
";,--- --,-,1;,-;;,,,-;3-;;,-;,;;;,,;,,rt;---;-,>:;,,--;,,,-;,,;;;,--- --,-,1;,-;;,,,-;3-;;,-;,;;;,,;,,rt;---;-,>:;,,--;,,,-;,,;;",
">,,-,,-,,##,;11,,;,-;,1;,;--;,;:,>;;;;-;;---,1-;:,;,:,,;>;;-,-,,>,,-,,-,,##,;11,,;,-;,1;,;--;,;:,>;;;;-;;---,1-;:,;,:,,;>;;-,-,,",
" ,,- -,;,--##1;,,;,-1,;,-;::;;: ,;,,;,,t11;,#1;,;r;,;;;:;;-;;#;, ,,- -,;,--##1;,,;,-1,;,-;::;;: ,;,,;,,t11;,#1;,;r;,;;;:;;-;;#;,",
"-,,--t-,,,,#,O-11#,-###,;;;-,,;,-;--;;;;t#;#;1;:,,,;,,;,,;;,,#3;-,,--t-,,,,#,O-11#,-###,;;;-,,;,-;--;;;;t#;#;1;:,,,;,,;,,;;,,#3;",
">-33*--,-r,,#,t-,1--,,1##-1,-;,,;;#-1,,,##;,,,,;,,,-,,-->,-,,;#;>-33*--,-r,,#,t-,1--,,1##-1,-;,,;;#-1,,,##;,,,,;,,,-,,-->,-,,;#;",
"--,,,,3,3,,,3,#,,3,3,,-#,3,,-3 ,;33-313#1313,,,3,-,--#,t,#, -*#,--,,,,3,3,,,3,#,,3,3,,-#,3,,-3 ,;33-313#1313,,,3,-,--#,t,#, -*#,",
"-,,,,3-113--,3;;;,,,,,3,,,,r ,r3r#;;-#r3rr1133;#-31,,t,,,6-*-1->-,,,,3-113--,3;;;,,,,,3,,,,r ,r3r#;;-#r3rr1133;#-31,,t,,,6-*-1->",
"O,3-33O1rr1r#;;;;;1;,r,;;; 1r,--3rX###3#r,1113r;3;,#-1,,,36>3->tO,3-33O1rr1r#;;;;;1;,r,;;; 1r,--3rX###3#r,1113r;3;,#-1,,,36>3->t",
"O833#O18r33OOr:;;;;:1::O::rO313;r8OXX##rOrOO33333rrO1,1,6;33133*O833#O18r33OOr:;;;;:1::O::rO313;r8OXX##rOrOO33333rrO1,1,6;33133*",
"O8r83rOO8rrrr8r::8rrOO8::r333r38rr83383O388O33r8OOOO3O1r8rr338r3O8r83rOO8rrrr8r::8rrOO8::r333r38rr83383O388O33r8OOOO3O1r8rr338r3",
"88rrOOrOrrOrr8O3r8OrrOOrOrrrrr8rwrr83OO8OOOOOw8r83OO8rO8OOrrO88888rrOOrOrrOrr8O3r8OrrOOrOrrrrr8rwrr83OO8OOOOOw8r83OO8rO8OOrrO888",
"OXwrXrXOrOOXr8OO8OXXrOOXOOOXXrrrrXXXOrrXOOXXX.w8XXw888O8XXOOOX8OOXwrXrXOrOOXr8OO8OXXrOOXOOOXXrrrrXXXOrrXOOXXX.w8XXw888O8XXOOOX8O",
"OOXXXOrrOXXXOOXwXXXXrrOXXO.XX.rXXX8r8r8XXOOX.X.XX.X.XwXwX8XO.XwwOOXXXOrrOXXXOOXwXXXXrrOXXO.XX.rXXX8r8r8XXOOX.X.XX.X.XwXwX8XO.Xww",
"OO.Xw.XOXXXXXXX.XXXXXOOXX.X.X..XXXOXrr8XO.X..XoXw...XX.OXXOO.XwOOO.Xw.XOXXXXXXX.XXXXXOOXX.X.X..XXXOXrr8XO.X..XoXw...XX.OXXOO.XwO",
"XXo...XOXw.ewXX.ow.XXOXX..X..oX.XoX.X..XX.X..Xeo..XXo..X.X.X...XXXo...XOXw.ewXX.ow.XXOXX..X..oX.XoX.X..XX.X..Xeo..XXo..X.X.X...X",
"oeo.X..X...oXX.o.e..XOX..o.wo+o..ee.X.o....e.o..oo.X..o.ooXXe..Xoeo.X..X...oXX.o.e..XOX..o.wo+o..ee.X.o....e.o..oo.X..o.ooXXe..X",
"o.o..eoX.e.o..o+oXo..X.eoo...o+o..+...o.o.o.+++.+.+.X..eoo.....wo.o..eoX.e.o..o+oXo..X.eoo...o+o..+...o.o.o.+++.+.+.X..eoo.....w",
"o.oX.oooo.++ooo@o.oo.o..oo+o.+o..o$oooooooo++o.o+.o+.Xo.+.o.o.o.o.oX.oooo.++ooo@o.oo.o..oo+o.+o..o$oooooooo++o.o+.o+.Xo.+.o.o.o.",
"o.o.ooo.o++@+++@o.o$o++o++$+o+oo.@%+++++o.+o.+oo++o@o.o+oo+.+.o.o.o.ooo.o++@+++@o.o$o++o++$+o+oo.@%+++++o.+o.+oo++o@o.o+oo+.+.o.",
"+o@.o+++@+o@@@@$@o@$@o++@$%+o$+o@%&$@$+oo+@+o+o+%@@%@oo+@@+$+o+o+o@.o+++@+o@@@@$@o@$@o++@$%+o$+o@%&$@$+oo+@+o+o+%@@%@oo+@@+$+o+o",
"++@@@+@@@@@@+$$$$%%$$@@@$%%$$$$$%=&&$&%$$@$&+$$%%+%%%@@@@@$$$+++++@@@+@@@@@@+$$$$%%$$@@@$%%$$$$$%=&&$&%$$@$&+$$%%+%%%@@@@@$$$+++"
};
