/* XPM */
static char *_53a156e433f4b4ced7f5d724b41815alUmqlr0LivWzZ39W[] = {
/* columns rows colors chars-per-pixel */
"72 84 135 2 ",
"   c #000025",
".  c #02002D",
"X  c #0A032E",
"o  c #010233",
"O  c #0A0332",
"+  c #040936",
"@  c #0B0C36",
"#  c #000438",
"$  c #000A3C",
"%  c #0C0C3E",
"&  c #000E41",
"*  c #090F41",
"=  c #0B1342",
"-  c #101D51",
";  c #1D2554",
":  c #212F5C",
">  c #162662",
",  c #152A63",
"<  c #192B66",
"1  c #1E2E6A",
"2  c #1E3869",
"3  c #223263",
"4  c #23336C",
"5  c #333969",
"6  c #354578",
"7  c #394A7D",
"8  c #3F5183",
"9  c #335088",
"0  c #375E97",
"q  c #3B5B95",
"w  c #375D99",
"e  c #3D5D9B",
"r  c #3A619A",
"t  c #3E65A1",
"y  c #425486",
"u  c #495C87",
"i  c #44588A",
"p  c #495D8F",
"a  c #525A89",
"s  c #405E95",
"d  c #4C5C98",
"f  c #416097",
"g  c #4D6395",
"h  c #47669D",
"j  c #4E639B",
"k  c #526494",
"l  c #566994",
"z  c #51629C",
"x  c #52689A",
"c  c #405FA0",
"v  c #4163A2",
"b  c #456AA5",
"n  c #4C6AA2",
"m  c #466CA9",
"M  c #5464A0",
"N  c #536BA4",
"B  c #4570A7",
"V  c #4771A8",
"C  c #4974AB",
"Z  c #4D78AF",
"A  c #5B71A3",
"S  c #5578AE",
"D  c #4D75B1",
"F  c #477AB1",
"G  c #4E7AB1",
"H  c #5377B5",
"J  c #537EB5",
"K  c #5A7FB5",
"L  c #557EBA",
"P  c #5A7EB9",
"I  c #627CAD",
"U  c #4D80B7",
"Y  c #5580B7",
"T  c #5A80B7",
"R  c #5782B9",
"E  c #5983BA",
"W  c #5588BF",
"Q  c #6B85B6",
"!  c #6287BE",
"~  c #6789BF",
"^  c #6E88BB",
"/  c #708ABB",
"(  c #5D85C1",
")  c #5689C0",
"_  c #5C8CC2",
"`  c #5F92C7",
"'  c #5E91C8",
"]  c #638FC0",
"[  c #6A8BC1",
"{  c #6692C3",
"}  c #6A96C7",
"|  c #6995C6",
" . c #6295CA",
".. c #6396CB",
"X. c #6396CD",
"o. c #6497CC",
"O. c #6497CE",
"+. c #6F92C8",
"@. c #6895CC",
"#. c #6598CF",
"$. c #6699CE",
"%. c #6D99CA",
"&. c #6F9BCC",
"*. c #7393C4",
"=. c #7699CF",
"-. c #709CCD",
";. c #719DCE",
":. c #729ECF",
">. c #7999CA",
",. c #799ACD",
"<. c #6699D0",
"1. c #679AD1",
"2. c #689BD0",
"3. c #739FD0",
"4. c #739ED1",
"5. c #749ED1",
"6. c #759FD2",
"7. c #7E9FD2",
"8. c #6DA1D3",
"9. c #6DA0D5",
"0. c #6EA1D6",
"q. c #6FA2D7",
"w. c #75A1D2",
"e. c #77A3D4",
"r. c #77A2D5",
"t. c #71A5D7",
"y. c #78A2D5",
"u. c #78A4D5",
"i. c #70A3D8",
"p. c #71A4D9",
"a. c #74A7DC",
"s. c #80A1D4",
"d. c #8BA5D6",
"f. c #89A9DA",
"g. c #8FAFE0",
/* pixels */
"o O o O O o O o O o o O o O O o o O o O o O O o O O o O O o o o O o O O o O o O o O o O O o O o X . X . . . O . O O X . . X . X X   X X     O . ",
". o o . o o o . O . o o . o o . o o . . . o o o . . . o o o . X o . o o . o o . o o . o o . o o . . . . . . . . O O o . O o o .       X X X .   ",
"o # o o # o o # o o # o # o o o o # o # o # o # # o o # o # # # o o # o o # o o # o o # o # o # o o o o . o o . o o o o o o o .   @ +     @ + . ",
"# # # # # # # # # # # # # # # # # # # # # # # # # # # # # # # # # # # # # # # # # # # # o # # # + o o # + o + + . . . o o o o o   + X   . .   O ",
"$ & & & $ $ & $ $ $ & $ $ $ & $ $ $ $ $ $ $ + + $ $ $ & $ $ $ $ & $ $ & $ & $ $ $ $ $ & $ $ $ + $ + $ + $ $ + $ $ $ $ $ + # + $ $ o   o $ . . % ",
"^ ^ ^ ^ ^ ^ ^ [ ^ ^ ^ [ ^ ^ ^ ^ ^ ^ ^ ^ / / / / ^ ^ ^ [ ^ ^ ^ [ ^ ^ ^ [ ^ ^ ^ ^ ^ ^ ^ ^ ^ / / / ^ ^ / ^ ^ / ^ / / / / Q I I I I l u : + . # o . ",
"6.6.y.r.6.6.6.r.6.6.r.r.y.6.6.6.e.e.e.w.t.t.e.e.6.6.y.r.6.6.y.r.6.6.r.r.y.6.6.6.r.r.t.w.u.u.w.e.e.e.e.u.e.e.e.u.u.u.w.&.{ { { | f.g.^ 2 o $ = . ",
"5.5.6.4.5.4.6.6.6.6.4.6.6.5.5.6.3.3.3.w.w.w.3.t.6.5.6.4.5.5.6.6.5.5.4.4.6.5.6.6.3.3.3.w.:.w.w.w.:.:.:.:.:.:.:.3.:.:.&.| { ~ | %.*.>.d.^ 3 . . $ ",
"8.8.8.8.8.8.8.8.4.0.8.8.8.8.8.8.8.8.8.8.8.8.8.8.8.8.8.8.8.8.8.8.2.i.2.i.8.8.8.8.8.8.8.8.8.8.8.8.9.9.9.0.9.9.9.9.q.8.2.` ) ` o.q.6.6.,.,.x o . # ",
"t.t.t.t.t.t.t.t.p.p.t.t.t.t.t.t.t.t.t.t.t.t.t.8.t.t.t.t.t.t.t.t.a.p.t.t.t.t.t.t.t.t.t.t.t.t.t.t.p.p.p.0.p.p.p.p.a.q.$.o.o.2.8.a.y.y.7.s.A $ o # ",
" .$. . .o.o. ...X.#.o.$.o.o.o.o. .} o.} o.o.o.o.o.o.} o.o.o.} o.o.o.@.o...o.$.2.o.` o.o. . .o.} <.O.' <.O.O.' <.$.` ) ) ' <.<.o.@.@.[ >.A $ o o ",
"U W U W W R W R W U R U U W U W W U W R U W U W U W U U W W R W W U W R R W U U W W R W U W W R U W W ) U W W R W U F F U ) ) U R R K ! x $ o . ",
"Y Y Y Y R Y Y R Y R Y T R R Y Y T Y Y T Y Y Y Y R Y Y Y R R Y R Y Y R Y Y Y E Y U Y R R Y Y R Y R L L L L L L L L L L L R R L L L J S ! g $ . o ",
"W R T W E E E E E E E E E E E E R R R W R W R Q W W W T R R R R E R E E E E E E R R E E E R E R ( E ( E E ( E ( E ( E P W L E E W R K ! g + o + ",
"T T Q R T T T T E T T T T T E T T T T T T Q T T T T T T T T T Y T T T T T T T T T T T T Q T T T P ( L P ( P P ( P P P ( P P P P R L T ~ k o . o ",
"T T T R T T T T T T T T T T T T T T T T Y Y T T T T T T T T T Q T T T T T T T T T T T T Y R T T P P P P P P P P P L P P P P P L J R T [ k + . . ",
"R R R T R R R R R R T R T R R R R R T R R R R ! E T R R R R R R Y T Y T R R R R R R R R R R R R E R R R R R R R R R R R R R R R U ) L ( d # o o ",
"R R R R R R R R R R W R R R R T R R R R R R R R R R R R R T R R T T Y T R R R R R E R R R R T R E R R R R R T E R R T R R R R R L L P ] g $ o . ",
"R R R R R R R R T R T R R R R W ! R W W R R R R R R R R R R R R T R U U R ! R R R T R R R R R R R R R R R R R R T R R R R R E R R ) P P g $ o o ",
"R R R R R R R T R R W R R R ! R W T T T R T W R R R R R R R R R R U U U Y R R Y R R E R R R R E R R R R R R R T R E R R T R R R R E P [ g $ # o ",
"R T R R R R T R Y Y R R Y Y Y Y R R R R R R R T R R R R R R R R R U U V Y R R R R R R R R R R R R R R R R R R E T R R R R R R R L L L ! g $ o + ",
"R R R R R R R R Y R R R Y Y Y Y Y R R R R R R R T R R R R R T R T R Y Y R R T R R R R R R R R R R R R R R R R R E R R R R R R R ) U R ] g $ o . ",
"R R R R T R R R Y R Y Y V U U U Y Y R R R W R R R R R R R R Y Y R R Y T R R R ! R R R R T R R R R R R R R R E R R R R E R R R T R W T ! g $ o o ",
"R R R R R R R R R T T U B g B B U Y T R R ! R R R R R R R R Y U T T T Y R R R R R R T E R R R R R R R R R R R R R R R R R R R R R R T ! g $ o + ",
"R T R R R R R R ! R R Y U U h h Y Y Y Y R Q W R W U l U B B Y Q W R T R R R R R R T W R R T R R R R T R R R E T R R R R R T R R L ) L ! d # o . ",
"R R R R R R R R R R Y Y Y Y U Y Y Y Y T R R R R R U B B U B U T R R R R R R R R R R R R R R R R R R R R R R R R R R R E R R R R L L L ] g $ o o ",
"R E R R R R R R Y R R R ! R R ! Y R Y T R R R R Y U B U B B h Y T R R R R R R T R R R T R R R T R R R R R R R R R R R R R E R R R ) P ! g # # o ",
"R R R R T R R R R R R R W R R R R R R R R R R R Y U B h B r U U R R R R R R R R R R R R R R R R R R R R R R R R R R R R R R R R L L P ] g $ o o ",
"R R R E R R T R R T R R R T R R R R R R R R R R T U B B B U U Y Y Y R R R R R R E R R R R R R T E R R R T R R R R R R R R R E R ) L L ] g $ o + ",
"R R R R R R E R R R R R R R R T R R R R R R Y R T Y Y U n Y Y ! R ! R R R R R R R R R R R R R R R R E R R R R R R R R R R R R R L L L E g $ o . ",
"T R R R R R R R R R R R R W T W R R R R R R R Y T R R Y Y Y R R R R R R R R R R R R R R R R R R E R R R R R R R R R R R R R R R R ) T ! g $ o o ",
"R R R R R E R R R R R R T R R Y R ! R R R R T R Y R R R Y T R Y R R R R R R R R R R R T R R R R R R R R R R R T R R R R R R R R Y W T ! g + o + ",
"R R R R R Q R R R R R R R R R R R R R R R R R R R T R R R R R R R R R T R R R R R R R R R R R R R Y R R R R R R R R R R R R R R L ) L ( d # o . ",
"R R R R R R R R R R R R R R R R R R R R R R R R R R R R R R R R R R R R R R R R R R R R R R R R R Q R R R R R R R R R R R R R R L L L ] g $ o o ",
"R R R R R R R R R R R R R R R R R R R R R R R R R R R R R R R R R R R R R R R T R R R R R R R R R R R R Q Y R R R R R R R R R R R ) P ] g $ o o ",
"R R R R R R R R R R R R R R R R R R R R R R R R R R R R T R R R R R R R R R R R R R R R R R R R R R R R R R R R R R R R R R R R L L P P g $ o o ",
"R R R R R R R R R U R R R R R R R R R R Q U R R R R R R R R R R R R R R R ! R R R R R R R R R R R R R R R R R R R R R R R R R R L L L [ g $ + . ",
"R R R R R R R R R Q R R U Q R R Q R R R R R R R R R R R R R R R R R R R R R R R R R R R R R R R R R R R R R R R R R R R R R R R ) U E ] g $ o o ",
"R R R R R R R R R R R R R R R R R R R R R R R R R R T R R R R R R R R R R R R R R R R R R R R R R R R R R R R R R R R R R R R R W R T ! g $ o o ",
"R T R R R R R R R R R R R R R R R R R R R R R R R R R R R R R R R R R R R R R R Y Y Q R R R R R R R R R R R R R R R R R R R Y Q Y R T ! g $ + . ",
"R R R R R R R R R R R R R R T R R R R R R R T R T R R R R R R R R R R R R R R R R R R R R R R R R R R Q R R R T R R R R R R R R U ) L ( d # o o ",
"R R R R R R R R R R R R R R R R R R R R R R R R R R R R R R R Q T R R R R R R R R R R R R R R R R R R R R R R R R R R R R R R R L L P ] g $ o o ",
"R T R R R R R Q R R R R R R R R R R R R R R R R R R R R R R R R R T R R R R R R R R R R R R R R R R R R R R R R R R R R R R R T R ) L [ g $ o o ",
"R R R R R R R U R R R R R R R R R R R R T R R R R R R R R R R R R R R R R R R R R R R R R R R R R R R R R R R R R R R R R R R R L L P E g $ o o ",
"R R R R R R R R R Q R R R R R R R R R R R R R R R R R R R R R R R R R R R R R R R R R R Q Y R R R R R R R R R R R R R R R R R R L U L [ g $ + . ",
"R R R R R R R R R R R R R R R R R R R R R R R R R R R R R R R R R R R R R T Y Q R R R R R R R R R R R R R R R R R R R R R R R R ) L P ] g $ o o ",
"R R R R R R R R R R R R R R R R R R U R R R R R R R R R R R R R R R T R R R R R R R R R R R R R R R R R R R R R R R R R R R Q Y R ) T ! g $ + o ",
"R R R R R R R R R R R R R R R R R R Q R R R R R R R R R R R R R R R R R R R R R R R R R R R R R R R R R R R R R R R R R R R R R Y R T ! g $ o . ",
"R Q R R R R R R R R R R R R R R R R R R R R R R Q R R R R R R Y R R R R R T R R R R R R R R R R R R R R R R R R R R R R R R R R L ) L [ d # + o ",
"R R R R R R R R R R R R R R R R R R R R R R R R Y R R R R R R Q R R R R R R R R R R R R R T R R R R R R R R R R R R R R R R R R L L L ] d $ o o ",
"R R R R R R R U R R R R R R R T R R R R R R R R R R R R R R R R R T R T R R R R R R R T R R R R R R T R R R R R R R R R R R R R R ) P P g $ o . ",
"R R R R R R R Q R R R R R R R R R R R R R R R R R R R R R R R R R R R R R R R R R R R R R R R R R R R R Q R R R R R R R R R R R E E P ] g $ o o ",
"R R R R R R R R R R R R R R R R R R R R R R R R R R R R R R T R R R R R R R R R R R R R R R R R R R R R R R R R R R R R T R R R ) L L ] g $ o + ",
"R R R R R R R R R R R R R R R R R R R R R R R R R R R R R R R R R R R R R R R R R R R R R R R ! T R R R T R R R R R R R R R R R L L L E g $ o o ",
"R R R R R R R R R R R R R R R R R R R R Q Y R R R R R R R R R R R R ! R R R ! R R R R R R R R R R R R R R R R R R R R R R R R R R ) T ! g $ o . ",
"R R R R R T R R R R R R R R Q R R R R R R R R R R R R R R R R R R R R R R Y Y R R R R R R R R R R R R R R R R R R R R R R R U Q Y W T ! g + + o ",
"R R R R R R R R R R R R T R R R R R R R R R R R R R Y Q R R R R R R R R R R R R R R R R R R R R Y Y Y U W R R Q R R R R R R R R ) U L [ d # o . ",
"R R T R R R R R R R R R R R R R R R R R R R R R R R R R R R R R R R R R R T R R R T R R R R R R U U U U U U R W R R R R R R R R L L P ] g $ o o ",
"R R R R R T R R R R R R Y W R R R R R R R R R R R R R R R R R R R R R R R R R R R R R R R R R R l B t B U U R R R R R T R U R R L ) L [ g $ # o ",
"R R R R R R R R R R R R R U Q R R R R R R R R R R R R R R R R R R R R R R R R R R R R R R R R T Y U l U l U Y R R R R R R Q R R L L P E g # o o ",
"R R R R R R R R R T R R R R R R Y R R R R R R R R R R R R R R R R R Q R R R R R T R R R R R R R Y R R Y Y Y R R R R R R R R R R L U L [ g $ o . ",
"T R R R R R R R R R R R R R R R Q R R R R R R R R R R R R R R R R Y Y R R T R R R R R R R R R R Y Y R R R R R R R R R R R R R R ) L P ] g $ + o ",
"R U R R U W R R R R R R R R R R R R R R R R R R R R R R R R R R R R R R R R R R R R R R R R R R R R R R R R R W R R R R R R R R R ) T ! g $ + o ",
"R Q R R Q R R R R R R R T R R R R R R R R R R R R R R R R R R R R R R R R T R R R R R R T R R R ! R R Y Y Y R Q R R R R R R R R Y R T ! g $ o o ",
"R R R R U R R R Y Y Y Y Y W Y Y Y Y Y W R U R R R U U R R R U R P E K E P E R P E K R P P E P R K P T T T T R K T T T T R K T T W J S ! g # . o ",
"W U R R W Y R Y W Y W Y Y Y W Y W Y Y Y R R R R Y W R R R R R W E P R P P K P K P E P E E P E K T T K K T T R T R P T T R K T T W L K ! k # . . ",
"Y R R R R R R U Y Y Y W Y Y Y Y W R Y W R R U R R R R R R R R R R R R R R E P E R P R E R R R R R R E R P R R P L R E L R R R R R L K ! g + o o ",
"R R R U R Y Y W W Y Y Y W Y W Y Y Y Y Y Y Y W R R R U R R R U R R R R R R R R R R R R T R R R R R R P R R R R R R R L E R P R P R E K ! g + o . ",
"W U R R R W Y Y R R R Y R R Y R Y Y Y R R R R R R R R R R R R R R R R R R R R R R R R R R R R R E Y E L R R R R R R R R ( L L L L E I ! p # . o ",
"Y R R R R U R R R Y W Y R Y Y R Y W Y Y R R R R R R R R U R U R R R R R R R R R R R R R R R R R R E Y E R T R R R R R R L L ) L L E K I i o . o ",
"R R R R R R R R R R R R R R R R Y R R R R R R R R R R R R R R R R R R R R R R R R R R R R R R R R R ) L R R R R L R L ) R ) W L L E K K y o o o ",
"R R R R R R R R R R R R R R R R Y R R W R R R R R R R R R R R R U R R R Y R R R T R Y Y R R R U L ) U L ) R R E L ) R U L L L L L E K S 8 o . + ",
"R U R R R R R R R R Y Y R Y Y R Y R Y R Y R R R R R R R R R R R R R E R E E R R R E E R R R E R R ) L ( ( L L L ( L L L L L L ( ( ( K h y o . + ",
"R Q R R R R R R ! R R R E E R E R E E E R E R T R W R R R E E E T R R R R R P R R R T R R R R R R L L L L L L ( H L ( ( ( ( W L D D x q 7 # . + ",
"Y U R Y T Y Y Y T R R R R R R R R Y R T R R R R Y Y T T Y Y T Y R P R R R T R R R R R P T R R P ( L L L H ( L L ( ( ( ( W L D D h r q r 7 # . + ",
"R Q W R R R T ! R E E R E E T E E E E E T T R T R R R W R R ! R E E R R R R R E E R E E E R E E ( L ( ( ( ( ( ( ( ( L H D t c c r 0 q h 6 $ . o ",
"Q W R ! R W T R E ! ! R E E T E E E E E R E E R ! E ! E ! ! R ! P P P P P K P K K K P P P P K K L L P P P P H P L H D m c c w w r r q N 6 $ . o ",
"h U t U h U h U B B B B C B C B C V C V C B C C B B B B B B B B b b n b b b b b b b n b b b b b m v c m m m m c t v c c w w c c r t r x 4 & o o ",
"0 0 0 0 0 0 0 0 0 0 0 0 0 0 0 0 0 0 r 0 0 0 0 0 0 0 0 0 0 0 0 0 e q q q q q e q e q q q e q q q e e e e c c w e c c w w c c c c w t q q ; # o o ",
"0 0 r r 0 r r r r r r r r r r r 0 r r r r r r r r r r r r r r r s s r e s e f q e s e e e s s r c c c c c c c c c c c c c w e e w t q 9 $ o . . ",
"d M M d d M d z N d d d M z d M g j j j c z z d M M c z z d M M h j j j j j h j j x j j n j x h g j j h j x j j j j j h j h j j a a 5 $ . + % . ",
", , < , < < < , 1 1 1 4 4 1 < > , , , , , , < , , , , , < , , , , ; , , , ; , ; , , , , ; , , , , , , ; , , , , , , , ; , , ; , ; = . . . . . . ",
"$ # # # # # # # # # o o o o # o o # o o o # o # # o o # # o # o o o o o + o o o # o + o o o o o o o o o + . o o + o o o # o o o + . . o # o . + ",
"o # # o # # # o o # o o o # # # # # # # # # # # # # # # # # # # # + + o $ + # + + # + + + # + # # o # + + + o + # + o + # # # # . + $ o . . o + "
};